<svg xmlns="http://www.w3.org/2000/svg" width="130" height="130"><path d="M54,74L35,53L33,75Z" fill="#c2b6ac" stroke="#c2b6ac" stroke-width="1.51"/><path d="M54,74L55,53L35,53Z" fill="#c1b4a9" stroke="#c1b4a9" stroke-width="1.51"/><path d="M35,53L13,52L33,75Z" fill="#d0c7be" stroke="#d0c7be" stroke-width="1.51"/><path d="M12,35L13,52L35,53Z" fill="#dfd8d3" stroke="#dfd8d3" stroke-width="1.51"/><path d="M54,74L74,54L55,53Z" fill="#b7a89c" stroke="#b7a89c" stroke-width="1.51"/><path d="M13,52L12,77L33,75Z" fill="#d2c8c2" stroke="#d2c8c2" stroke-width="1.51"/><path d="M76,95L75,75L54,74Z" fill="#ada19a" stroke="#ada19a" stroke-width="1.51"/><path d="M54,74L75,75L74,54Z" fill="#b0a196" stroke="#b0a196" stroke-width="1.51"/><path d="M52,98L54,74L33,75Z" fill="#bbb1ab" stroke="#bbb1ab" stroke-width="1.51"/><path d="M55,53L54,33L35,53Z" fill="#cbbfb6" stroke="#cbbfb6" stroke-width="1.51"/><path d="M74,54L54,33L55,53Z" fill="#c1b4aa" stroke="#c1b4aa" stroke-width="1.51"/><path d="M32,98L52,98L33,75Z" fill="#beb7b5" stroke="#beb7b5" stroke-width="1.51"/><path d="M13,95L32,98L33,75Z" fill="#c8c2c2" stroke="#c8c2c2" stroke-width="1.51"/><path d="M54,33L34,31L35,53Z" fill="#d5ccc5" stroke="#d5ccc5" stroke-width="1.51"/><path d="M12,77L13,95L33,75Z" fill="#cec8c6" stroke="#cec8c6" stroke-width="1.51"/><path d="M34,31L12,35L35,53Z" fill="#dfd8d3" stroke="#dfd8d3" stroke-width="1.51"/><path d="M13,52L-10,77L12,77Z" fill="#c7bfbe" stroke="#c7bfbe" stroke-width="1.51"/><path d="M52,98L76,95L54,74Z" fill="#afa49f" stroke="#afa49f" stroke-width="1.51"/><path d="M96,54L77,32L74,54Z" fill="#bbb1ab" stroke="#bbb1ab" stroke-width="1.51"/><path d="M54,33L52,13L34,31Z" fill="#dbd3cd" stroke="#dbd3cd" stroke-width="1.51"/><path d="M74,54L77,32L54,33Z" fill="#c3b7ae" stroke="#c3b7ae" stroke-width="1.51"/><path d="M96,54L74,54L75,75Z" fill="#b1a49d" stroke="#b1a49d" stroke-width="1.51"/><path d="M33,118L52,98L32,98Z" fill="#bbb8b9" stroke="#bbb8b9" stroke-width="1.51"/><path d="M33,118L54,116L52,98Z" fill="#b5b1b4" stroke="#b5b1b4" stroke-width="1.51"/><path d="M52,98L54,116L76,95Z" fill="#aca5a3" stroke="#aca5a3" stroke-width="1.51"/><path d="M73,12L52,13L54,33Z" fill="#d6cdc6" stroke="#d6cdc6" stroke-width="1.51"/><path d="M34,31L12,13L12,35Z" fill="#efebe8" stroke="#efebe8" stroke-width="1.51"/><path d="M52,13L32,13L34,31Z" fill="#e5dfdb" stroke="#e5dfdb" stroke-width="1.51"/><path d="M98,76L96,54L75,75Z" fill="#aca19c" stroke="#aca19c" stroke-width="1.51"/><path d="M13,116L33,118L32,98Z" fill="#c3c3c8" stroke="#c3c3c8" stroke-width="1.51"/><path d="M12,77L-10,77L13,95Z" fill="#c4bfc2" stroke="#c4bfc2" stroke-width="1.51"/><path d="M13,95L13,116L32,98Z" fill="#cac9cc" stroke="#cac9cc" stroke-width="1.51"/><path d="M-11,52L-10,77L13,52Z" fill="#bab2b5" stroke="#bab2b5" stroke-width="1.51"/><path d="M12,35L-11,52L13,52Z" fill="#d4cfcf" stroke="#d4cfcf" stroke-width="1.51"/><path d="M-11,32L-11,52L12,35Z" fill="#c7c2c9" stroke="#c7c2c9" stroke-width="1.51"/><path d="M96,95L98,76L75,75Z" fill="#a9a1a0" stroke="#a9a1a0" stroke-width="1.51"/><path d="M96,95L75,75L76,95Z" fill="#a9a1a0" stroke="#a9a1a0" stroke-width="1.51"/><path d="M-12,97L13,116L13,95Z" fill="#bebfc8" stroke="#bebfc8" stroke-width="1.51"/><path d="M32,13L12,13L34,31Z" fill="#efebe9" stroke="#efebe9" stroke-width="1.51"/><path d="M77,32L73,12L54,33Z" fill="#cdc3bb" stroke="#cdc3bb" stroke-width="1.51"/><path d="M52,13L53,-10L32,13Z" fill="#d7d1d1" stroke="#d7d1d1" stroke-width="1.51"/><path d="M32,13L31,-10L12,13Z" fill="#e6e3e6" stroke="#e6e3e6" stroke-width="1.51"/><path d="M97,14L73,12L77,32Z" fill="#cec8c6" stroke="#cec8c6" stroke-width="1.51"/><path d="M94,118L96,95L76,95Z" fill="#a4a1a6" stroke="#a4a1a6" stroke-width="1.51"/><path d="M96,54L97,35L77,32Z" fill="#beb6b3" stroke="#beb6b3" stroke-width="1.51"/><path d="M116,52L97,35L96,54Z" fill="#b6b1b1" stroke="#b6b1b1" stroke-width="1.51"/><path d="M12,13L-11,32L12,35Z" fill="#e2dfe3" stroke="#e2dfe3" stroke-width="1.51"/><path d="M-10,77L-12,97L13,95Z" fill="#b0adb7" stroke="#b0adb7" stroke-width="1.51"/><path d="M-32,97L-12,97L-10,77Z" fill="#8e8c9f" stroke="#8e8c9f" stroke-width="1.51"/><path d="M-32,74L-10,77L-11,52Z" fill="#948d99" stroke="#948d99" stroke-width="1.51"/><path d="M54,116L77,119L76,95Z" fill="#a7a1a2" stroke="#a7a1a2" stroke-width="1.51"/><path d="M54,137L77,119L54,116Z" fill="#a19ca1" stroke="#a19ca1" stroke-width="1.51"/><path d="M33,118L54,137L54,116Z" fill="#aba9b0" stroke="#aba9b0" stroke-width="1.51"/><path d="M32,141L54,137L33,118Z" fill="#a5a4af" stroke="#a5a4af" stroke-width="1.51"/><path d="M77,119L94,118L76,95Z" fill="#a4a1a7" stroke="#a4a1a7" stroke-width="1.51"/><path d="M117,77L116,52L98,76Z" fill="#a7a1a2" stroke="#a7a1a2" stroke-width="1.51"/><path d="M97,137L94,118L77,119Z" fill="#9898a4" stroke="#9898a4" stroke-width="1.51"/><path d="M97,35L97,14L77,32Z" fill="#c7c2c1" stroke="#c7c2c1" stroke-width="1.51"/><path d="M98,76L116,52L96,54Z" fill="#aca5a3" stroke="#aca5a3" stroke-width="1.51"/><path d="M117,77L98,76L96,95Z" fill="#a5a1a5" stroke="#a5a1a5" stroke-width="1.51"/><path d="M119,31L97,14L97,35Z" fill="#c4c2c5" stroke="#c4c2c5" stroke-width="1.51"/><path d="M-33,33L-31,54L-11,52Z" fill="#928d9e" stroke="#928d9e" stroke-width="1.51"/><path d="M119,96L117,77L96,95Z" fill="#a2a1a8" stroke="#a2a1a8" stroke-width="1.51"/><path d="M75,-12L53,-10L73,12Z" fill="#b4acb0" stroke="#b4acb0" stroke-width="1.51"/><path d="M73,12L53,-10L52,13Z" fill="#ccc4c2" stroke="#ccc4c2" stroke-width="1.51"/><path d="M-31,54L-32,74L-11,52Z" fill="#898292" stroke="#898292" stroke-width="1.51"/><path d="M53,-10L31,-10L32,13Z" fill="#cac6cb" stroke="#cac6cb" stroke-width="1.51"/><path d="M12,13L-11,10L-11,32Z" fill="#d6d5de" stroke="#d6d5de" stroke-width="1.51"/><path d="M11,137L32,141L33,118Z" fill="#afb0be" stroke="#afb0be" stroke-width="1.51"/><path d="M-12,97L-9,120L13,116Z" fill="#abaebe" stroke="#abaebe" stroke-width="1.51"/><path d="M-29,118L-9,120L-12,97Z" fill="#8c90a7" stroke="#8c90a7" stroke-width="1.51"/><path d="M11,137L33,118L13,116Z" fill="#bec1cb" stroke="#bec1cb" stroke-width="1.51"/><path d="M13,-10L-11,10L12,13Z" fill="#dcdce5" stroke="#dcdce5" stroke-width="1.51"/><path d="M-11,32L-33,33L-11,52Z" fill="#a5a1b0" stroke="#a5a1b0" stroke-width="1.51"/><path d="M-9,120L11,137L13,116Z" fill="#b3b7c7" stroke="#b3b7c7" stroke-width="1.51"/><path d="M77,158L75,138L54,137Z" fill="#847f8c" stroke="#847f8c" stroke-width="1.51"/><path d="M54,137L75,138L77,119Z" fill="#949098" stroke="#949098" stroke-width="1.51"/><path d="M31,-10L13,-10L12,13Z" fill="#d8d8df" stroke="#d8d8df" stroke-width="1.51"/><path d="M-32,74L-32,97L-10,77Z" fill="#827e92" stroke="#827e92" stroke-width="1.51"/><path d="M138,52L119,31L116,52Z" fill="#acaab1" stroke="#acaab1" stroke-width="1.51"/><path d="M120,117L119,96L96,95Z" fill="#9fa2ad" stroke="#9fa2ad" stroke-width="1.51"/><path d="M120,117L96,95L94,118Z" fill="#9fa2ac" stroke="#9fa2ac" stroke-width="1.51"/><path d="M-31,54L-33,33L-32,74Z" fill="#7d788c" stroke="#7d788c" stroke-width="1.51"/><path d="M-32,74L-33,33L-32,97Z" fill="#756e82" stroke="#756e82" stroke-width="1.51"/><path d="M-33,12L-33,33L-11,32Z" fill="#9e9cb1" stroke="#9e9cb1" stroke-width="1.51"/><path d="M116,52L119,31L97,35Z" fill="#b9b7ba" stroke="#b9b7ba" stroke-width="1.51"/><path d="M138,52L116,52L139,74Z" fill="#99959d" stroke="#99959d" stroke-width="1.51"/><path d="M94,-9L75,-12L73,12Z" fill="#b2adb4" stroke="#b2adb4" stroke-width="1.51"/><path d="M53,-10L52,-29L31,-10Z" fill="#a6a0ad" stroke="#a6a0ad" stroke-width="1.51"/><path d="M31,-10L31,-32L13,-10Z" fill="#b2afc0" stroke="#b2afc0" stroke-width="1.51"/><path d="M94,-9L73,12L97,14Z" fill="#c4c1c4" stroke="#c4c1c4" stroke-width="1.51"/><path d="M-9,120L-12,138L11,137Z" fill="#969ab2" stroke="#969ab2" stroke-width="1.51"/><path d="M-32,97L-29,118L-12,97Z" fill="#7d8098" stroke="#7d8098" stroke-width="1.51"/><path d="M118,11L94,-9L97,14Z" fill="#c0c1c9" stroke="#c0c1c9" stroke-width="1.51"/><path d="M75,138L97,137L77,119Z" fill="#91909d" stroke="#91909d" stroke-width="1.51"/><path d="M95,158L97,137L75,138Z" fill="#7f7f92" stroke="#7f7f92" stroke-width="1.51"/><path d="M-11,10L-33,12L-11,32Z" fill="#b4b3c5" stroke="#b4b3c5" stroke-width="1.51"/><path d="M13,-10L-11,-8L-11,10Z" fill="#b9bacc" stroke="#b9bacc" stroke-width="1.51"/><path d="M-29,118L-12,138L-9,120Z" fill="#8186a2" stroke="#8186a2" stroke-width="1.51"/><path d="M14,160L34,159L32,141Z" fill="#9292a8" stroke="#9292a8" stroke-width="1.51"/><path d="M119,31L118,11L97,14Z" fill="#c8cad0" stroke="#c8cad0" stroke-width="1.51"/><path d="M-31,-10L-33,12L-11,10Z" fill="#9799b3" stroke="#9799b3" stroke-width="1.51"/><path d="M97,137L120,117L94,118Z" fill="#959aaa" stroke="#959aaa" stroke-width="1.51"/><path d="M139,74L116,52L117,77Z" fill="#9e999f" stroke="#9e999f" stroke-width="1.51"/><path d="M75,-32L52,-29L75,-12Z" fill="#867f8e" stroke="#867f8e" stroke-width="1.51"/><path d="M75,-12L52,-29L53,-10Z" fill="#9a939e" stroke="#9a939e" stroke-width="1.51"/><path d="M13,-10L-10,-30L-11,-8Z" fill="#9c9db7" stroke="#9c9db7" stroke-width="1.51"/><path d="M32,141L34,159L54,137Z" fill="#9391a2" stroke="#9391a2" stroke-width="1.51"/><path d="M14,160L32,141L11,137Z" fill="#a1a3b6" stroke="#a1a3b6" stroke-width="1.51"/><path d="M119,31L137,10L118,11Z" fill="#bec1cc" stroke="#bec1cc" stroke-width="1.51"/><path d="M139,74L117,77L119,96Z" fill="#9998a2" stroke="#9998a2" stroke-width="1.51"/><path d="M139,98L139,74L119,96Z" fill="#8e8e9d" stroke="#8e8e9d" stroke-width="1.51"/><path d="M52,-29L31,-32L31,-10Z" fill="#9a97a8" stroke="#9a97a8" stroke-width="1.51"/><path d="M34,159L53,162L54,137Z" fill="#868295" stroke="#868295" stroke-width="1.51"/><path d="M53,162L77,158L54,137Z" fill="#7d7787" stroke="#7d7787" stroke-width="1.51"/><path d="M97,137L117,141L120,117Z" fill="#8990a4" stroke="#8990a4" stroke-width="1.51"/><path d="M-10,160L14,160L11,137Z" fill="#8e91ab" stroke="#8e91ab" stroke-width="1.51"/><path d="M34,159L14,160L53,162Z" fill="#85839a" stroke="#85839a" stroke-width="1.51"/><path d="M138,52L138,33L119,31Z" fill="#a6a6b0" stroke="#a6a6b0" stroke-width="1.51"/><path d="M160,32L138,33L138,52Z" fill="#9492a3" stroke="#9492a3" stroke-width="1.51"/><path d="M120,117L139,98L119,96Z" fill="#9297a8" stroke="#9297a8" stroke-width="1.51"/><path d="M98,-30L75,-32L75,-12Z" fill="#827e92" stroke="#827e92" stroke-width="1.51"/><path d="M52,-29L75,-32L31,-32Z" fill="#817b8f" stroke="#817b8f" stroke-width="1.51"/><path d="M98,-30L75,-12L94,-9Z" fill="#918fa0" stroke="#918fa0" stroke-width="1.51"/><path d="M-11,-8L-31,-10L-11,10Z" fill="#989ab4" stroke="#989ab4" stroke-width="1.51"/><path d="M31,-32L10,-32L13,-10Z" fill="#a6a5ba" stroke="#a6a5ba" stroke-width="1.51"/><path d="M118,11L116,-11L94,-9Z" fill="#abaebd" stroke="#abaebd" stroke-width="1.51"/><path d="M137,-10L116,-11L118,11Z" fill="#a0a5b9" stroke="#a0a5b9" stroke-width="1.51"/><path d="M-10,-30L-31,-10L-11,-8Z" fill="#7b7e9e" stroke="#7b7e9e" stroke-width="1.51"/><path d="M120,117L139,119L139,98Z" fill="#878ea3" stroke="#878ea3" stroke-width="1.51"/><path d="M95,158L117,141L97,137Z" fill="#7a7e95" stroke="#7a7e95" stroke-width="1.51"/><path d="M-12,138L-10,160L11,137Z" fill="#8488a4" stroke="#8488a4" stroke-width="1.51"/><path d="M-29,118L-32,140L-12,138Z" fill="#686e8f" stroke="#686e8f" stroke-width="1.51"/><path d="M-32,97L-32,140L-29,118Z" fill="#6a7191" stroke="#6a7191" stroke-width="1.51"/><path d="M-33,33L-32,140L-32,97Z" fill="#706e88" stroke="#706e88" stroke-width="1.51"/><path d="M77,158L95,158L75,138Z" fill="#78758a" stroke="#78758a" stroke-width="1.51"/><path d="M53,162L95,158L77,158Z" fill="#706b81" stroke="#706b81" stroke-width="1.51"/><path d="M10,-32L-10,-30L13,-10Z" fill="#9a9bb5" stroke="#9a9bb5" stroke-width="1.51"/><path d="M138,33L137,10L119,31Z" fill="#b1b2be" stroke="#b1b2be" stroke-width="1.51"/><path d="M-30,161L-10,160L-12,138Z" fill="#5c6187" stroke="#5c6187" stroke-width="1.51"/><path d="M14,160L-30,161L53,162Z" fill="#9194ae" stroke="#9194ae" stroke-width="1.51"/><path d="M116,-11L98,-30L94,-9Z" fill="#8f90a4" stroke="#8f90a4" stroke-width="1.51"/><path d="M119,-31L98,-30L116,-11Z" fill="#7c809b" stroke="#7c809b" stroke-width="1.51"/><path d="M139,139L139,119L120,117Z" fill="#7d859e" stroke="#7d859e" stroke-width="1.51"/><path d="M160,95L139,74L139,98Z" fill="#7c7c91" stroke="#7c7c91" stroke-width="1.51"/><path d="M160,95L162,74L139,74Z" fill="#757287" stroke="#757287" stroke-width="1.51"/><path d="M139,74L162,53L138,52Z" fill="#85808e" stroke="#85808e" stroke-width="1.51"/><path d="M138,33L160,13L137,10Z" fill="#a3a4b8" stroke="#a3a4b8" stroke-width="1.51"/><path d="M162,74L162,53L139,74Z" fill="#777283" stroke="#777283" stroke-width="1.51"/><path d="M117,141L139,139L120,117Z" fill="#7d859e" stroke="#7d859e" stroke-width="1.51"/><path d="M95,158L118,158L117,141Z" fill="#6f7590" stroke="#6f7590" stroke-width="1.51"/><path d="M53,162L118,158L95,158Z" fill="#6c6b84" stroke="#6c6b84" stroke-width="1.51"/><path d="M160,-10L137,-10L137,10Z" fill="#8589a5" stroke="#8589a5" stroke-width="1.51"/><path d="M137,10L137,-10L118,11Z" fill="#a7abbe" stroke="#a7abbe" stroke-width="1.51"/><path d="M-32,140L-30,161L-12,138Z" fill="#555b81" stroke="#555b81" stroke-width="1.51"/><path d="M-10,160L-30,161L14,160Z" fill="#656a8e" stroke="#656a8e" stroke-width="1.51"/><path d="M160,117L139,98L139,119Z" fill="#767d97" stroke="#767d97" stroke-width="1.51"/><path d="M160,117L160,95L139,98Z" fill="#70748e" stroke="#70748e" stroke-width="1.51"/><path d="M10,-32L-32,-30L-10,-30Z" fill="#6a6e92" stroke="#6a6e92" stroke-width="1.51"/><path d="M-10,-30L-32,-30L-31,-10Z" fill="#5c6187" stroke="#5c6187" stroke-width="1.51"/><path d="M-31,-10L-32,-30L-33,12Z" fill="#6a6d91" stroke="#6a6d91" stroke-width="1.51"/><path d="M138,159L139,139L117,141Z" fill="#636c8c" stroke="#636c8c" stroke-width="1.51"/><path d="M162,53L160,32L138,52Z" fill="#858296" stroke="#858296" stroke-width="1.51"/><path d="M137,-10L119,-31L116,-11Z" fill="#8286a2" stroke="#8286a2" stroke-width="1.51"/><path d="M98,-30L119,-31L75,-32Z" fill="#70728c" stroke="#70728c" stroke-width="1.51"/><path d="M162,53L160,13L160,32Z" fill="#85839b" stroke="#85839b" stroke-width="1.51"/><path d="M160,32L160,13L138,33Z" fill="#9394a9" stroke="#9394a9" stroke-width="1.51"/><path d="M137,-10L137,-32L119,-31Z" fill="#696f90" stroke="#696f90" stroke-width="1.51"/><path d="M160,95L160,117L162,74Z" fill="#686a85" stroke="#686a85" stroke-width="1.51"/><path d="M159,138L160,117L139,119Z" fill="#646c8c" stroke="#646c8c" stroke-width="1.51"/><path d="M139,139L159,138L139,119Z" fill="#636c8c" stroke="#636c8c" stroke-width="1.51"/><path d="M118,158L138,159L117,141Z" fill="#646c8d" stroke="#646c8d" stroke-width="1.51"/><path d="M53,162L138,159L118,158Z" fill="#686c88" stroke="#686c88" stroke-width="1.51"/><path d="M160,-10L137,-32L137,-10Z" fill="#676c8e" stroke="#676c8e" stroke-width="1.51"/><path d="M119,-31L137,-32L75,-32Z" fill="#6c708e" stroke="#6c708e" stroke-width="1.51"/><path d="M161,158L159,138L139,139Z" fill="#4a5279" stroke="#4a5279" stroke-width="1.51"/><path d="M160,13L160,-10L137,10Z" fill="#8c90ab" stroke="#8c90ab" stroke-width="1.51"/><path d="M162,53L160,-10L160,13Z" fill="#8e8fa8" stroke="#8e8fa8" stroke-width="1.51"/><path d="M138,159L161,158L139,139Z" fill="#4a5279" stroke="#4a5279" stroke-width="1.51"/><path d="M159,138L161,158L160,117Z" fill="#4a537a" stroke="#4a537a" stroke-width="1.51"/><path d="M160,117L161,158L162,74Z" fill="#626a8a" stroke="#626a8a" stroke-width="1.51"/><path d="M162,53L160,-32L160,-10Z" fill="#8083a1" stroke="#8083a1" stroke-width="1.51"/><path d="M160,-10L160,-32L137,-32Z" fill="#4d547c" stroke="#4d547c" stroke-width="1.51"/></svg>