<svg xmlns="http://www.w3.org/2000/svg" width="90" height="90"><path d="M42,44L31,44L43,59Z" fill="#b6a89e" stroke="#b6a89e" stroke-width="1.51"/><path d="M31,44L26,60L43,59Z" fill="#baafa8" stroke="#baafa8" stroke-width="1.51"/><path d="M31,44L13,59L26,60Z" fill="#c5bcb6" stroke="#c5bcb6" stroke-width="1.51"/><path d="M13,59L28,76L26,60Z" fill="#c2bdbc" stroke="#c2bdbc" stroke-width="1.51"/><path d="M26,60L28,76L43,59Z" fill="#b8b1ae" stroke="#b8b1ae" stroke-width="1.51"/><path d="M31,44L11,41L13,59Z" fill="#ccc2bb" stroke="#ccc2bb" stroke-width="1.51"/><path d="M45,27L27,28L31,44Z" fill="#c8bcb3" stroke="#c8bcb3" stroke-width="1.51"/><path d="M43,59L62,58L42,44Z" fill="#aea199" stroke="#aea199" stroke-width="1.51"/><path d="M42,44L45,27L31,44Z" fill="#beb0a5" stroke="#beb0a5" stroke-width="1.51"/><path d="M58,76L62,58L43,59Z" fill="#a9a1a0" stroke="#a9a1a0" stroke-width="1.51"/><path d="M61,32L45,27L42,44Z" fill="#bbaea5" stroke="#bbaea5" stroke-width="1.51"/><path d="M28,76L45,77L43,59Z" fill="#b0a9a7" stroke="#b0a9a7" stroke-width="1.51"/><path d="M27,28L11,41L31,44Z" fill="#cfc5bd" stroke="#cfc5bd" stroke-width="1.51"/><path d="M62,58L65,42L42,44Z" fill="#ada19a" stroke="#ada19a" stroke-width="1.51"/><path d="M65,42L61,32L42,44Z" fill="#b4a8a1" stroke="#b4a8a1" stroke-width="1.51"/><path d="M45,77L58,76L43,59Z" fill="#a8a1a0" stroke="#a8a1a0" stroke-width="1.51"/><path d="M27,28L10,30L11,41Z" fill="#dcd4ce" stroke="#dcd4ce" stroke-width="1.51"/><path d="M28,76L27,92L45,77Z" fill="#b1b0b4" stroke="#b1b0b4" stroke-width="1.51"/><path d="M13,59L8,77L28,76Z" fill="#c6c5c7" stroke="#c6c5c7" stroke-width="1.51"/><path d="M-8,60L8,77L13,59Z" fill="#c5c4c8" stroke="#c5c4c8" stroke-width="1.51"/><path d="M-5,48L13,59L11,41Z" fill="#d1cac6" stroke="#d1cac6" stroke-width="1.51"/><path d="M62,58L76,47L65,42Z" fill="#a9a19f" stroke="#a9a19f" stroke-width="1.51"/><path d="M65,42L78,29L61,32Z" fill="#b5aead" stroke="#b5aead" stroke-width="1.51"/><path d="M58,76L75,62L62,58Z" fill="#a5a2a5" stroke="#a5a2a5" stroke-width="1.51"/><path d="M75,62L76,47L62,58Z" fill="#a6a1a4" stroke="#a6a1a4" stroke-width="1.51"/><path d="M45,27L45,13L27,28Z" fill="#cec4bc" stroke="#cec4bc" stroke-width="1.51"/><path d="M27,28L15,11L10,30Z" fill="#e5dfda" stroke="#e5dfda" stroke-width="1.51"/><path d="M57,10L45,13L45,27Z" fill="#cdc4bd" stroke="#cdc4bd" stroke-width="1.51"/><path d="M57,10L45,27L61,32Z" fill="#c5bcb7" stroke="#c5bcb7" stroke-width="1.51"/><path d="M15,95L27,92L28,76Z" fill="#b1b1ba" stroke="#b1b1ba" stroke-width="1.51"/><path d="M45,77L44,95L58,76Z" fill="#a4a0a5" stroke="#a4a0a5" stroke-width="1.51"/><path d="M10,30L-5,48L11,41Z" fill="#d5ceca" stroke="#d5ceca" stroke-width="1.51"/><path d="M27,92L44,95L45,77Z" fill="#a19da4" stroke="#a19da4" stroke-width="1.51"/><path d="M58,76L76,80L75,62Z" fill="#a1a2aa" stroke="#a1a2aa" stroke-width="1.51"/><path d="M10,30L-9,27L-5,48Z" fill="#c4bec1" stroke="#c4bec1" stroke-width="1.51"/><path d="M45,13L28,8L27,28Z" fill="#dbd3cd" stroke="#dbd3cd" stroke-width="1.51"/><path d="M-5,48L-8,60L13,59Z" fill="#bbb5ba" stroke="#bbb5ba" stroke-width="1.51"/><path d="M28,8L15,11L27,28Z" fill="#e6e1dc" stroke="#e6e1dc" stroke-width="1.51"/><path d="M42,-6L27,-1L28,8Z" fill="#ccc6c8" stroke="#ccc6c8" stroke-width="1.51"/><path d="M73,14L57,10L61,32Z" fill="#c6c1c1" stroke="#c6c1c1" stroke-width="1.51"/><path d="M76,47L78,29L65,42Z" fill="#afa8a8" stroke="#afa8a8" stroke-width="1.51"/><path d="M91,41L78,29L76,47Z" fill="#aca9ac" stroke="#aca9ac" stroke-width="1.51"/><path d="M27,92L28,108L44,95Z" fill="#94919f" stroke="#94919f" stroke-width="1.51"/><path d="M8,77L15,95L28,76Z" fill="#c1c3cb" stroke="#c1c3cb" stroke-width="1.51"/><path d="M-1,94L15,95L8,77Z" fill="#bdc0ce" stroke="#bdc0ce" stroke-width="1.51"/><path d="M64,95L76,80L58,76Z" fill="#9c9fab" stroke="#9c9fab" stroke-width="1.51"/><path d="M93,64L91,41L76,47Z" fill="#9c99a0" stroke="#9c99a0" stroke-width="1.51"/><path d="M44,95L64,95L58,76Z" fill="#97959f" stroke="#97959f" stroke-width="1.51"/><path d="M-5,48L-24,60L-8,60Z" fill="#938f9d" stroke="#938f9d" stroke-width="1.51"/><path d="M-2,9L-9,27L10,30Z" fill="#d5d1d6" stroke="#d5d1d6" stroke-width="1.51"/><path d="M-8,60L-8,79L8,77Z" fill="#acadbb" stroke="#acadbb" stroke-width="1.51"/><path d="M-22,79L-8,79L-8,60Z" fill="#8c8ea4" stroke="#8c8ea4" stroke-width="1.51"/><path d="M78,29L73,14L61,32Z" fill="#bebaba" stroke="#bebaba" stroke-width="1.51"/><path d="M15,11L-2,9L10,30Z" fill="#f5f3f1" stroke="#f5f3f1" stroke-width="1.51"/><path d="M28,8L27,-1L15,11Z" fill="#e8e4e3" stroke="#e8e4e3" stroke-width="1.51"/><path d="M42,-6L28,8L45,13Z" fill="#d5cecb" stroke="#d5cecb" stroke-width="1.51"/><path d="M42,-6L45,13L57,10Z" fill="#cfc8c5" stroke="#cfc8c5" stroke-width="1.51"/><path d="M93,64L76,47L75,62Z" fill="#a2a1a9" stroke="#a2a1a9" stroke-width="1.51"/><path d="M78,29L97,12L73,14Z" fill="#c0c1c9" stroke="#c0c1c9" stroke-width="1.51"/><path d="M-8,79L-1,94L8,77Z" fill="#aeb2c3" stroke="#aeb2c3" stroke-width="1.51"/><path d="M14,112L28,108L15,95Z" fill="#9594a9" stroke="#9594a9" stroke-width="1.51"/><path d="M15,95L28,108L27,92Z" fill="#9d9dac" stroke="#9d9dac" stroke-width="1.51"/><path d="M44,95L57,109L64,95Z" fill="#838090" stroke="#838090" stroke-width="1.51"/><path d="M8,-4L-2,9L15,11Z" fill="#f3f3f6" stroke="#f3f3f6" stroke-width="1.51"/><path d="M91,80L93,64L76,80Z" fill="#9399aa" stroke="#9399aa" stroke-width="1.51"/><path d="M76,80L93,64L75,62Z" fill="#9fa2ad" stroke="#9fa2ad" stroke-width="1.51"/><path d="M59,-8L42,-6L57,10Z" fill="#b7b1b6" stroke="#b7b1b6" stroke-width="1.51"/><path d="M-9,27L-23,41L-5,48Z" fill="#9d96a1" stroke="#9d96a1" stroke-width="1.51"/><path d="M-24,8L-18,27L-9,27Z" fill="#a09db0" stroke="#a09db0" stroke-width="1.51"/><path d="M-18,27L-23,41L-9,27Z" fill="#9691a2" stroke="#9691a2" stroke-width="1.51"/><path d="M47,112L57,109L44,95Z" fill="#7b7587" stroke="#7b7587" stroke-width="1.51"/><path d="M80,97L91,80L76,80Z" fill="#929aad" stroke="#929aad" stroke-width="1.51"/><path d="M28,108L47,112L44,95Z" fill="#817c8d" stroke="#817c8d" stroke-width="1.51"/><path d="M-8,79L-18,95L-1,94Z" fill="#868ba6" stroke="#868ba6" stroke-width="1.51"/><path d="M-23,41L-24,60L-5,48Z" fill="#858090" stroke="#858090" stroke-width="1.51"/><path d="M80,97L76,80L64,95Z" fill="#8c91a4" stroke="#8c91a4" stroke-width="1.51"/><path d="M78,107L80,97L64,95Z" fill="#7c8198" stroke="#7c8198" stroke-width="1.51"/><path d="M-2,9L-24,8L-9,27Z" fill="#b7b5c6" stroke="#b7b5c6" stroke-width="1.51"/><path d="M27,-1L8,-4L15,11Z" fill="#e2dfe4" stroke="#e2dfe4" stroke-width="1.51"/><path d="M26,-20L8,-4L27,-1Z" fill="#bcb9c5" stroke="#bcb9c5" stroke-width="1.51"/><path d="M42,-6L26,-20L27,-1Z" fill="#aea9b3" stroke="#aea9b3" stroke-width="1.51"/><path d="M79,-4L59,-8L57,10Z" fill="#b5b4bd" stroke="#b5b4bd" stroke-width="1.51"/><path d="M79,-4L57,10L73,14Z" fill="#ccccd0" stroke="#ccccd0" stroke-width="1.51"/><path d="M28,108L14,112L47,112Z" fill="#817d93" stroke="#817d93" stroke-width="1.51"/><path d="M-1,94L14,112L15,95Z" fill="#a7a9bd" stroke="#a7a9bd" stroke-width="1.51"/><path d="M-24,60L-22,79L-8,60Z" fill="#7e7e95" stroke="#7e7e95" stroke-width="1.51"/><path d="M-1,94L-9,114L14,112Z" fill="#878ba7" stroke="#878ba7" stroke-width="1.51"/><path d="M91,41L97,25L78,29Z" fill="#a7a5ad" stroke="#a7a5ad" stroke-width="1.51"/><path d="M110,26L97,25L91,41Z" fill="#9491a0" stroke="#9491a0" stroke-width="1.51"/><path d="M80,97L92,97L91,80Z" fill="#7d869f" stroke="#7d869f" stroke-width="1.51"/><path d="M57,109L78,107L64,95Z" fill="#777990" stroke="#777990" stroke-width="1.51"/><path d="M47,112L78,107L57,109Z" fill="#6f6e86" stroke="#6f6e86" stroke-width="1.51"/><path d="M-22,79L-18,95L-8,79Z" fill="#7a809d" stroke="#7a809d" stroke-width="1.51"/><path d="M8,-4L-8,-2L-2,9Z" fill="#cacbd9" stroke="#cacbd9" stroke-width="1.51"/><path d="M-18,27L-24,8L-23,41Z" fill="#8c899e" stroke="#8c899e" stroke-width="1.51"/><path d="M97,12L79,-4L73,14Z" fill="#c8ccd6" stroke="#c8ccd6" stroke-width="1.51"/><path d="M78,107L92,97L80,97Z" fill="#757d99" stroke="#757d99" stroke-width="1.51"/><path d="M114,60L110,47L93,64Z" fill="#777589" stroke="#777589" stroke-width="1.51"/><path d="M93,64L110,47L91,41Z" fill="#878391" stroke="#878391" stroke-width="1.51"/><path d="M59,-8L41,-20L42,-6Z" fill="#99929c" stroke="#99929c" stroke-width="1.51"/><path d="M8,-4L8,-18L-8,-2Z" fill="#b9b9cb" stroke="#b9b9cb" stroke-width="1.51"/><path d="M61,-25L41,-20L59,-8Z" fill="#837f90" stroke="#837f90" stroke-width="1.51"/><path d="M97,25L97,12L78,29Z" fill="#acacb8" stroke="#acacb8" stroke-width="1.51"/><path d="M41,-20L26,-20L42,-6Z" fill="#968f9e" stroke="#968f9e" stroke-width="1.51"/><path d="M114,60L93,64L109,81Z" fill="#74768e" stroke="#74768e" stroke-width="1.51"/><path d="M97,25L110,26L97,12Z" fill="#9999ab" stroke="#9999ab" stroke-width="1.51"/><path d="M-23,41L-24,8L-24,60Z" fill="#7c768b" stroke="#7c768b" stroke-width="1.51"/><path d="M-8,-2L-24,8L-2,9Z" fill="#b5b6c9" stroke="#b5b6c9" stroke-width="1.51"/><path d="M-8,-2L-20,-9L-24,8Z" fill="#8e90ac" stroke="#8e90ac" stroke-width="1.51"/><path d="M26,-20L8,-18L8,-4Z" fill="#b0afc1" stroke="#b0afc1" stroke-width="1.51"/><path d="M-20,106L-9,114L-1,94Z" fill="#676c8f" stroke="#676c8f" stroke-width="1.51"/><path d="M14,112L-9,114L47,112Z" fill="#8888a1" stroke="#8888a1" stroke-width="1.51"/><path d="M109,81L93,64L91,80Z" fill="#7f849b" stroke="#7f849b" stroke-width="1.51"/><path d="M114,60L110,26L110,47Z" fill="#716b7e" stroke="#716b7e" stroke-width="1.51"/><path d="M110,47L110,26L91,41Z" fill="#868191" stroke="#868191" stroke-width="1.51"/><path d="M92,97L109,81L91,80Z" fill="#767e99" stroke="#767e99" stroke-width="1.51"/><path d="M-24,60L-20,106L-22,79Z" fill="#6b7292" stroke="#6b7292" stroke-width="1.51"/><path d="M-22,79L-20,106L-18,95Z" fill="#5d6487" stroke="#5d6487" stroke-width="1.51"/><path d="M-18,95L-20,106L-1,94Z" fill="#696f91" stroke="#696f91" stroke-width="1.51"/><path d="M41,-20L61,-25L26,-20Z" fill="#7c7587" stroke="#7c7587" stroke-width="1.51"/><path d="M26,-20L-2,-23L8,-18Z" fill="#9e9fb6" stroke="#9e9fb6" stroke-width="1.51"/><path d="M76,-21L61,-25L59,-8Z" fill="#7e7e94" stroke="#7e7e94" stroke-width="1.51"/><path d="M76,-21L59,-8L79,-4Z" fill="#9293a7" stroke="#9293a7" stroke-width="1.51"/><path d="M92,97L111,91L109,81Z" fill="#636b8c" stroke="#636b8c" stroke-width="1.51"/><path d="M78,107L95,108L92,97Z" fill="#656d8d" stroke="#656d8d" stroke-width="1.51"/><path d="M47,112L95,108L78,107Z" fill="#6b6f8c" stroke="#6b6f8c" stroke-width="1.51"/><path d="M95,-18L76,-21L79,-4Z" fill="#8187a2" stroke="#8187a2" stroke-width="1.51"/><path d="M97,-6L79,-4L97,12Z" fill="#a2a7bb" stroke="#a2a7bb" stroke-width="1.51"/><path d="M-2,-23L-20,-9L-8,-2Z" fill="#8587a5" stroke="#8587a5" stroke-width="1.51"/><path d="M108,-5L97,-6L97,12Z" fill="#8f92ad" stroke="#8f92ad" stroke-width="1.51"/><path d="M95,108L111,91L92,97Z" fill="#5b6386" stroke="#5b6386" stroke-width="1.51"/><path d="M109,81L111,91L114,60Z" fill="#656b8a" stroke="#656b8a" stroke-width="1.51"/><path d="M8,-18L-2,-23L-8,-2Z" fill="#999ab4" stroke="#999ab4" stroke-width="1.51"/><path d="M61,-25L-2,-23L26,-20Z" fill="#878399" stroke="#878399" stroke-width="1.51"/><path d="M110,26L113,12L97,12Z" fill="#9494aa" stroke="#9494aa" stroke-width="1.51"/><path d="M114,60L113,12L110,26Z" fill="#7b778c" stroke="#7b778c" stroke-width="1.51"/><path d="M107,-20L95,-18L97,-6Z" fill="#62688b" stroke="#62688b" stroke-width="1.51"/><path d="M97,-6L95,-18L79,-4Z" fill="#8489a4" stroke="#8489a4" stroke-width="1.51"/><path d="M76,-21L107,-20L61,-25Z" fill="#6c7292" stroke="#6c7292" stroke-width="1.51"/><path d="M113,12L108,-5L97,12Z" fill="#989bb4" stroke="#989bb4" stroke-width="1.51"/><path d="M-2,-23L-22,-19L-20,-9Z" fill="#64688d" stroke="#64688d" stroke-width="1.51"/><path d="M-20,-9L-22,-19L-24,8Z" fill="#6e7194" stroke="#6e7194" stroke-width="1.51"/><path d="M95,108L111,110L111,91Z" fill="#485077" stroke="#485077" stroke-width="1.51"/><path d="M111,91L111,110L114,60Z" fill="#596184" stroke="#596184" stroke-width="1.51"/><path d="M47,112L111,110L95,108Z" fill="#626a8a" stroke="#626a8a" stroke-width="1.51"/><path d="M-9,114L111,110L47,112Z" fill="#6e697e" stroke="#6e697e" stroke-width="1.51"/><path d="M113,12L107,-20L108,-5Z" fill="#707596" stroke="#707596" stroke-width="1.51"/><path d="M108,-5L107,-20L97,-6Z" fill="#686d90" stroke="#686d90" stroke-width="1.51"/><path d="M95,-18L107,-20L76,-21Z" fill="#606689" stroke="#606689" stroke-width="1.51"/></svg>