<svg xmlns="http://www.w3.org/2000/svg" width="90" height="90"><path d="M45,46L46,50L49,44Z" fill="#b0a196" stroke="#b0a196" stroke-width="1.51"/><path d="M46,50L50,53L49,44Z" fill="#afa198" stroke="#afa198" stroke-width="1.51"/><path d="M46,37L39,43L45,46Z" fill="#b8a89c" stroke="#b8a89c" stroke-width="1.51"/><path d="M59,45L53,39L49,44Z" fill="#b1a49d" stroke="#b1a49d" stroke-width="1.51"/><path d="M50,53L58,51L49,44Z" fill="#ada19b" stroke="#ada19b" stroke-width="1.51"/><path d="M46,60L53,56L50,53Z" fill="#aba19d" stroke="#aba19d" stroke-width="1.51"/><path d="M45,46L36,52L46,50Z" fill="#b3a59b" stroke="#b3a59b" stroke-width="1.51"/><path d="M46,37L45,46L49,44Z" fill="#b4a59a" stroke="#b4a59a" stroke-width="1.51"/><path d="M53,56L58,51L50,53Z" fill="#aba19e" stroke="#aba19e" stroke-width="1.51"/><path d="M53,39L46,37L49,44Z" fill="#b6a99f" stroke="#b6a99f" stroke-width="1.51"/><path d="M58,51L59,45L49,44Z" fill="#ada19b" stroke="#ada19b" stroke-width="1.51"/><path d="M46,50L46,60L50,53Z" fill="#ada19b" stroke="#ada19b" stroke-width="1.51"/><path d="M39,59L46,60L46,50Z" fill="#afa39d" stroke="#afa39d" stroke-width="1.51"/><path d="M39,43L36,52L45,46Z" fill="#b7a99e" stroke="#b7a99e" stroke-width="1.51"/><path d="M53,56L58,56L58,51Z" fill="#a9a19f" stroke="#a9a19f" stroke-width="1.51"/><path d="M66,49L65,44L59,45Z" fill="#a9a19f" stroke="#a9a19f" stroke-width="1.51"/><path d="M58,65L58,56L53,56Z" fill="#a7a1a2" stroke="#a7a1a2" stroke-width="1.51"/><path d="M30,44L33,52L36,52Z" fill="#c0b4ac" stroke="#c0b4ac" stroke-width="1.51"/><path d="M46,37L38,39L39,43Z" fill="#beb0a4" stroke="#beb0a4" stroke-width="1.51"/><path d="M59,45L59,39L53,39Z" fill="#b2a7a2" stroke="#b2a7a2" stroke-width="1.51"/><path d="M53,39L51,30L46,37Z" fill="#bcb0a8" stroke="#bcb0a8" stroke-width="1.51"/><path d="M36,52L39,59L46,50Z" fill="#b4a8a2" stroke="#b4a8a2" stroke-width="1.51"/><path d="M46,60L50,63L53,56Z" fill="#aaa19f" stroke="#aaa19f" stroke-width="1.51"/><path d="M45,64L50,63L46,60Z" fill="#aaa19f" stroke="#aaa19f" stroke-width="1.51"/><path d="M30,44L36,52L39,43Z" fill="#beb1a7" stroke="#beb1a7" stroke-width="1.51"/><path d="M36,52L33,60L39,59Z" fill="#b8afab" stroke="#b8afab" stroke-width="1.51"/><path d="M39,59L45,64L46,60Z" fill="#ada4a0" stroke="#ada4a0" stroke-width="1.51"/><path d="M59,45L65,44L59,39Z" fill="#aea5a1" stroke="#aea5a1" stroke-width="1.51"/><path d="M66,49L59,45L58,51Z" fill="#aaa19f" stroke="#aaa19f" stroke-width="1.51"/><path d="M56,29L51,30L53,39Z" fill="#bfb5af" stroke="#bfb5af" stroke-width="1.51"/><path d="M46,37L39,32L38,39Z" fill="#c2b6ab" stroke="#c2b6ab" stroke-width="1.51"/><path d="M56,29L53,39L59,39Z" fill="#b9b0ab" stroke="#b9b0ab" stroke-width="1.51"/><path d="M51,30L44,30L46,37Z" fill="#c2b5ac" stroke="#c2b5ac" stroke-width="1.51"/><path d="M44,30L39,32L46,37Z" fill="#c4b7ad" stroke="#c4b7ad" stroke-width="1.51"/><path d="M38,39L32,39L39,43Z" fill="#c3b6ac" stroke="#c3b6ac" stroke-width="1.51"/><path d="M64,58L66,49L58,51Z" fill="#a7a1a2" stroke="#a7a1a2" stroke-width="1.51"/><path d="M65,44L63,37L59,39Z" fill="#b1a9a7" stroke="#b1a9a7" stroke-width="1.51"/><path d="M31,33L32,39L38,39Z" fill="#cbc0b7" stroke="#cbc0b7" stroke-width="1.51"/><path d="M32,39L30,44L39,43Z" fill="#c4b8ae" stroke="#c4b8ae" stroke-width="1.51"/><path d="M58,56L64,58L58,51Z" fill="#a7a2a1" stroke="#a7a2a1" stroke-width="1.51"/><path d="M58,65L64,58L58,56Z" fill="#a6a2a4" stroke="#a6a2a4" stroke-width="1.51"/><path d="M33,52L33,60L36,52Z" fill="#bcb3ad" stroke="#bcb3ad" stroke-width="1.51"/><path d="M39,59L40,66L45,64Z" fill="#afa7a5" stroke="#afa7a5" stroke-width="1.51"/><path d="M24,57L33,60L33,52Z" fill="#c1b9b5" stroke="#c1b9b5" stroke-width="1.51"/><path d="M63,37L56,29L59,39Z" fill="#b9b1ae" stroke="#b9b1ae" stroke-width="1.51"/><path d="M51,30L46,26L44,30Z" fill="#c7bbb3" stroke="#c7bbb3" stroke-width="1.51"/><path d="M50,63L58,65L53,56Z" fill="#a7a1a2" stroke="#a7a1a2" stroke-width="1.51"/><path d="M50,70L58,65L50,63Z" fill="#a6a1a4" stroke="#a6a1a4" stroke-width="1.51"/><path d="M33,60L40,66L39,59Z" fill="#b5aeab" stroke="#b5aeab" stroke-width="1.51"/><path d="M45,64L50,70L50,63Z" fill="#a8a1a2" stroke="#a8a1a2" stroke-width="1.51"/><path d="M44,30L38,26L39,32Z" fill="#cdc2b9" stroke="#cdc2b9" stroke-width="1.51"/><path d="M52,26L46,26L51,30Z" fill="#c7beb7" stroke="#c7beb7" stroke-width="1.51"/><path d="M56,29L52,26L51,30Z" fill="#c5bcb7" stroke="#c5bcb7" stroke-width="1.51"/><path d="M66,49L70,43L65,44Z" fill="#a9a1a0" stroke="#a9a1a0" stroke-width="1.51"/><path d="M65,44L70,43L63,37Z" fill="#aea7a6" stroke="#aea7a6" stroke-width="1.51"/><path d="M64,58L70,50L66,49Z" fill="#a5a1a4" stroke="#a5a1a4" stroke-width="1.51"/><path d="M70,50L70,43L66,49Z" fill="#a7a1a3" stroke="#a7a1a3" stroke-width="1.51"/><path d="M63,37L64,30L56,29Z" fill="#bcb6b5" stroke="#bcb6b5" stroke-width="1.51"/><path d="M23,40L25,44L30,44Z" fill="#cec3bb" stroke="#cec3bb" stroke-width="1.51"/><path d="M39,32L31,33L38,39Z" fill="#cbc0b7" stroke="#cbc0b7" stroke-width="1.51"/><path d="M38,26L31,33L39,32Z" fill="#d1c7bf" stroke="#d1c7bf" stroke-width="1.51"/><path d="M43,70L50,70L45,64Z" fill="#a8a1a1" stroke="#a8a1a1" stroke-width="1.51"/><path d="M40,66L43,70L45,64Z" fill="#aba5a4" stroke="#aba5a4" stroke-width="1.51"/><path d="M39,71L43,70L40,66Z" fill="#ada8a9" stroke="#ada8a9" stroke-width="1.51"/><path d="M30,44L25,50L33,52Z" fill="#c5bab3" stroke="#c5bab3" stroke-width="1.51"/><path d="M25,44L25,50L30,44Z" fill="#c9bfb6" stroke="#c9bfb6" stroke-width="1.51"/><path d="M23,40L30,44L32,39Z" fill="#cdc2ba" stroke="#cdc2ba" stroke-width="1.51"/><path d="M71,37L64,30L63,37Z" fill="#b7b2b3" stroke="#b7b2b3" stroke-width="1.51"/><path d="M56,29L57,23L52,26Z" fill="#c7c0bd" stroke="#c7c0bd" stroke-width="1.51"/><path d="M46,26L38,26L44,30Z" fill="#ccc1b9" stroke="#ccc1b9" stroke-width="1.51"/><path d="M64,58L73,56L70,50Z" fill="#a4a1a7" stroke="#a4a1a7" stroke-width="1.51"/><path d="M58,65L65,64L64,58Z" fill="#a3a2a7" stroke="#a3a2a7" stroke-width="1.51"/><path d="M64,71L65,64L58,65Z" fill="#a1a2aa" stroke="#a1a2aa" stroke-width="1.51"/><path d="M70,43L71,37L63,37Z" fill="#b0abac" stroke="#b0abac" stroke-width="1.51"/><path d="M79,43L71,37L70,43Z" fill="#aba8ab" stroke="#aba8ab" stroke-width="1.51"/><path d="M33,60L31,66L40,66Z" fill="#b7b2b1" stroke="#b7b2b1" stroke-width="1.51"/><path d="M24,65L31,66L33,60Z" fill="#bfbbbb" stroke="#bfbbbb" stroke-width="1.51"/><path d="M50,76L58,73L50,70Z" fill="#a3a1a8" stroke="#a3a1a8" stroke-width="1.51"/><path d="M31,66L39,71L40,66Z" fill="#b3afb0" stroke="#b3afb0" stroke-width="1.51"/><path d="M64,30L57,23L56,29Z" fill="#c3bebc" stroke="#c3bebc" stroke-width="1.51"/><path d="M52,26L51,19L46,26Z" fill="#ccc3be" stroke="#ccc3be" stroke-width="1.51"/><path d="M46,26L39,17L38,26Z" fill="#d4cbc3" stroke="#d4cbc3" stroke-width="1.51"/><path d="M25,50L24,57L33,52Z" fill="#c6beb9" stroke="#c6beb9" stroke-width="1.51"/><path d="M18,53L24,57L25,50Z" fill="#cdc6c2" stroke="#cdc6c2" stroke-width="1.51"/><path d="M17,44L18,53L25,50Z" fill="#d2cac4" stroke="#d2cac4" stroke-width="1.51"/><path d="M26,32L23,40L32,39Z" fill="#d4cbc4" stroke="#d4cbc4" stroke-width="1.51"/><path d="M26,32L32,39L31,33Z" fill="#d4cac3" stroke="#d4cac3" stroke-width="1.51"/><path d="M71,64L73,56L64,58Z" fill="#a2a1a9" stroke="#a2a1a9" stroke-width="1.51"/><path d="M70,50L79,50L70,43Z" fill="#a5a1a5" stroke="#a5a1a5" stroke-width="1.51"/><path d="M32,25L26,32L31,33Z" fill="#dbd2cc" stroke="#dbd2cc" stroke-width="1.51"/><path d="M50,70L58,73L58,65Z" fill="#a3a1a7" stroke="#a3a1a7" stroke-width="1.51"/><path d="M65,64L71,64L64,58Z" fill="#a2a2aa" stroke="#a2a2aa" stroke-width="1.51"/><path d="M50,76L50,70L43,70Z" fill="#a5a1a5" stroke="#a5a1a5" stroke-width="1.51"/><path d="M38,26L32,25L31,33Z" fill="#d7cfc8" stroke="#d7cfc8" stroke-width="1.51"/><path d="M32,19L32,25L38,26Z" fill="#ddd6d0" stroke="#ddd6d0" stroke-width="1.51"/><path d="M71,69L71,64L65,64Z" fill="#9fa2ad" stroke="#9fa2ad" stroke-width="1.51"/><path d="M58,73L64,71L58,65Z" fill="#a1a2aa" stroke="#a1a2aa" stroke-width="1.51"/><path d="M57,23L51,19L52,26Z" fill="#ccc5c1" stroke="#ccc5c1" stroke-width="1.51"/><path d="M31,66L32,71L39,71Z" fill="#b6b3b6" stroke="#b6b3b6" stroke-width="1.51"/><path d="M43,79L50,76L43,70Z" fill="#a29da1" stroke="#a29da1" stroke-width="1.51"/><path d="M26,69L32,71L31,66Z" fill="#bcbabd" stroke="#bcbabd" stroke-width="1.51"/><path d="M39,76L43,70L39,71Z" fill="#ada9ac" stroke="#ada9ac" stroke-width="1.51"/><path d="M58,73L58,76L64,71Z" fill="#9fa2ac" stroke="#9fa2ac" stroke-width="1.51"/><path d="M64,30L64,23L57,23Z" fill="#c5c1c1" stroke="#c5c1c1" stroke-width="1.51"/><path d="M57,23L59,16L51,19Z" fill="#d0cbc9" stroke="#d0cbc9" stroke-width="1.51"/><path d="M71,37L72,31L64,30Z" fill="#b8b5b8" stroke="#b8b5b8" stroke-width="1.51"/><path d="M79,36L72,31L71,37Z" fill="#b2b0b6" stroke="#b2b0b6" stroke-width="1.51"/><path d="M73,26L64,23L64,30Z" fill="#c1c0c2" stroke="#c1c0c2" stroke-width="1.51"/><path d="M24,57L24,65L33,60Z" fill="#c3bfbe" stroke="#c3bfbe" stroke-width="1.51"/><path d="M18,64L24,65L24,57Z" fill="#c9c7c8" stroke="#c9c7c8" stroke-width="1.51"/><path d="M32,71L39,76L39,71Z" fill="#b1afb2" stroke="#b1afb2" stroke-width="1.51"/><path d="M50,76L58,76L58,73Z" fill="#9d9da6" stroke="#9d9da6" stroke-width="1.51"/><path d="M73,56L79,50L70,50Z" fill="#a2a0a7" stroke="#a2a0a7" stroke-width="1.51"/><path d="M71,64L77,57L73,56Z" fill="#9fa0ab" stroke="#9fa0ab" stroke-width="1.51"/><path d="M17,44L25,50L25,44Z" fill="#cfc6be" stroke="#cfc6be" stroke-width="1.51"/><path d="M17,44L25,44L23,40Z" fill="#d4cac3" stroke="#d4cac3" stroke-width="1.51"/><path d="M77,57L79,50L73,56Z" fill="#9b9aa3" stroke="#9b9aa3" stroke-width="1.51"/><path d="M32,71L30,78L39,76Z" fill="#b1b0b6" stroke="#b1b0b6" stroke-width="1.51"/><path d="M24,65L26,69L31,66Z" fill="#c0bfc1" stroke="#c0bfc1" stroke-width="1.51"/><path d="M79,50L79,43L70,43Z" fill="#a09b9f" stroke="#a09b9f" stroke-width="1.51"/><path d="M18,37L17,44L23,40Z" fill="#dbd2cc" stroke="#dbd2cc" stroke-width="1.51"/><path d="M51,19L46,16L46,26Z" fill="#d2c9c3" stroke="#d2c9c3" stroke-width="1.51"/><path d="M49,13L46,16L51,19Z" fill="#d3ccc8" stroke="#d3ccc8" stroke-width="1.51"/><path d="M71,64L76,65L77,57Z" fill="#9b9eab" stroke="#9b9eab" stroke-width="1.51"/><path d="M64,71L71,69L65,64Z" fill="#9fa2ad" stroke="#9fa2ad" stroke-width="1.51"/><path d="M71,78L71,69L64,71Z" fill="#9ca2b0" stroke="#9ca2b0" stroke-width="1.51"/><path d="M46,16L39,17L46,26Z" fill="#d6ccc5" stroke="#d6ccc5" stroke-width="1.51"/><path d="M26,32L18,37L23,40Z" fill="#dcd4ce" stroke="#dcd4ce" stroke-width="1.51"/><path d="M17,31L18,37L26,32Z" fill="#e3dcd8" stroke="#e3dcd8" stroke-width="1.51"/><path d="M23,24L26,32L32,25Z" fill="#e2dcd7" stroke="#e2dcd7" stroke-width="1.51"/><path d="M39,76L43,79L43,70Z" fill="#a6a3a7" stroke="#a6a3a7" stroke-width="1.51"/><path d="M50,76L58,84L58,76Z" fill="#9494a0" stroke="#9494a0" stroke-width="1.51"/><path d="M39,84L43,79L39,76Z" fill="#9d99a1" stroke="#9d99a1" stroke-width="1.51"/><path d="M39,17L32,19L38,26Z" fill="#ded7d1" stroke="#ded7d1" stroke-width="1.51"/><path d="M72,31L73,26L64,30Z" fill="#bdbbbf" stroke="#bdbbbf" stroke-width="1.51"/><path d="M64,23L59,16L57,23Z" fill="#ccc9c9" stroke="#ccc9c9" stroke-width="1.51"/><path d="M78,26L73,26L72,31Z" fill="#babbc1" stroke="#babbc1" stroke-width="1.51"/><path d="M79,43L79,36L71,37Z" fill="#a7a4aa" stroke="#a7a4aa" stroke-width="1.51"/><path d="M24,65L20,71L26,69Z" fill="#c4c4c9" stroke="#c4c4c9" stroke-width="1.51"/><path d="M18,53L17,58L24,57Z" fill="#cfcac9" stroke="#cfcac9" stroke-width="1.51"/><path d="M13,56L17,58L18,53Z" fill="#d0cccd" stroke="#d0cccd" stroke-width="1.51"/><path d="M71,69L76,65L71,64Z" fill="#9da2af" stroke="#9da2af" stroke-width="1.51"/><path d="M83,58L83,50L79,50Z" fill="#8f8d99" stroke="#8f8d99" stroke-width="1.51"/><path d="M66,19L59,16L64,23Z" fill="#cdcbcd" stroke="#cdcbcd" stroke-width="1.51"/><path d="M73,26L66,19L64,23Z" fill="#c5c5ca" stroke="#c5c5ca" stroke-width="1.51"/><path d="M79,36L79,33L72,31Z" fill="#adacb3" stroke="#adacb3" stroke-width="1.51"/><path d="M32,19L23,24L32,25Z" fill="#e5dfdb" stroke="#e5dfdb" stroke-width="1.51"/><path d="M57,11L49,13L51,19Z" fill="#cac5c5" stroke="#cac5c5" stroke-width="1.51"/><path d="M46,16L45,12L39,17Z" fill="#d3cac6" stroke="#d3cac6" stroke-width="1.51"/><path d="M39,17L36,11L32,19Z" fill="#e0dad7" stroke="#e0dad7" stroke-width="1.51"/><path d="M17,58L18,64L24,57Z" fill="#cecacb" stroke="#cecacb" stroke-width="1.51"/><path d="M79,50L83,50L79,43Z" fill="#949099" stroke="#949099" stroke-width="1.51"/><path d="M79,43L83,37L79,36Z" fill="#9d99a3" stroke="#9d99a3" stroke-width="1.51"/><path d="M79,36L83,37L79,33Z" fill="#a19fa9" stroke="#a19fa9" stroke-width="1.51"/><path d="M83,58L79,50L77,57Z" fill="#92919e" stroke="#92919e" stroke-width="1.51"/><path d="M11,45L11,49L17,44Z" fill="#c7c0bd" stroke="#c7c0bd" stroke-width="1.51"/><path d="M23,24L17,31L26,32Z" fill="#e6e1dc" stroke="#e6e1dc" stroke-width="1.51"/><path d="M49,13L45,12L46,16Z" fill="#cac2c0" stroke="#cac2c0" stroke-width="1.51"/><path d="M26,69L30,78L32,71Z" fill="#bbbbc0" stroke="#bbbbc0" stroke-width="1.51"/><path d="M25,79L30,78L26,69Z" fill="#b8b9c1" stroke="#b8b9c1" stroke-width="1.51"/><path d="M43,79L45,83L50,76Z" fill="#97929a" stroke="#97929a" stroke-width="1.51"/><path d="M39,84L45,83L43,79Z" fill="#949099" stroke="#949099" stroke-width="1.51"/><path d="M58,76L65,79L64,71Z" fill="#999daa" stroke="#999daa" stroke-width="1.51"/><path d="M71,69L79,71L76,65Z" fill="#979dad" stroke="#979dad" stroke-width="1.51"/><path d="M63,83L65,79L58,76Z" fill="#9093a3" stroke="#9093a3" stroke-width="1.51"/><path d="M11,49L13,56L18,53Z" fill="#c9c3c4" stroke="#c9c3c4" stroke-width="1.51"/><path d="M17,58L12,64L18,64Z" fill="#cccbcf" stroke="#cccbcf" stroke-width="1.51"/><path d="M11,49L18,53L17,44Z" fill="#d0c9c6" stroke="#d0c9c6" stroke-width="1.51"/><path d="M85,44L83,37L79,43Z" fill="#95919a" stroke="#95919a" stroke-width="1.51"/><path d="M79,33L78,26L72,31Z" fill="#b2b2b9" stroke="#b2b2b9" stroke-width="1.51"/><path d="M76,65L83,58L77,57Z" fill="#9294a2" stroke="#9294a2" stroke-width="1.51"/><path d="M86,65L83,58L76,65Z" fill="#8a8d9f" stroke="#8a8d9f" stroke-width="1.51"/><path d="M73,26L72,19L66,19Z" fill="#c6c8ce" stroke="#c6c8ce" stroke-width="1.51"/><path d="M86,32L78,26L79,33Z" fill="#a6a5b1" stroke="#a6a5b1" stroke-width="1.51"/><path d="M18,64L20,71L24,65Z" fill="#c9c9cd" stroke="#c9c9cd" stroke-width="1.51"/><path d="M12,69L20,71L18,64Z" fill="#ced0d5" stroke="#ced0d5" stroke-width="1.51"/><path d="M83,50L85,44L79,43Z" fill="#908b94" stroke="#908b94" stroke-width="1.51"/><path d="M91,45L85,44L91,50Z" fill="#807a89" stroke="#807a89" stroke-width="1.51"/><path d="M78,26L72,19L73,26Z" fill="#bfc1c9" stroke="#bfc1c9" stroke-width="1.51"/><path d="M66,11L57,11L59,16Z" fill="#c0bfc5" stroke="#c0bfc5" stroke-width="1.51"/><path d="M59,16L57,11L51,19Z" fill="#cdc9ca" stroke="#cdc9ca" stroke-width="1.51"/><path d="M11,45L17,44L9,40Z" fill="#c8c0be" stroke="#c8c0be" stroke-width="1.51"/><path d="M9,40L17,44L18,37Z" fill="#d6cecb" stroke="#d6cecb" stroke-width="1.51"/><path d="M12,30L9,40L18,37Z" fill="#d4cfce" stroke="#d4cfce" stroke-width="1.51"/><path d="M23,24L19,24L17,31Z" fill="#ede9e6" stroke="#ede9e6" stroke-width="1.51"/><path d="M18,20L19,24L23,24Z" fill="#f2efec" stroke="#f2efec" stroke-width="1.51"/><path d="M23,18L23,24L32,19Z" fill="#ede8e6" stroke="#ede8e6" stroke-width="1.51"/><path d="M66,11L59,16L66,19Z" fill="#cacace" stroke="#cacace" stroke-width="1.51"/><path d="M49,13L51,5L45,12Z" fill="#bab3b6" stroke="#bab3b6" stroke-width="1.51"/><path d="M45,83L50,85L50,76Z" fill="#918d98" stroke="#918d98" stroke-width="1.51"/><path d="M53,91L50,85L44,92Z" fill="#7e7a8a" stroke="#7e7a8a" stroke-width="1.51"/><path d="M30,78L39,84L39,76Z" fill="#a3a0aa" stroke="#a3a0aa" stroke-width="1.51"/><path d="M50,85L58,84L50,76Z" fill="#8f8d99" stroke="#8f8d99" stroke-width="1.51"/><path d="M71,85L71,78L65,79Z" fill="#8990a3" stroke="#8990a3" stroke-width="1.51"/><path d="M65,79L71,78L64,71Z" fill="#969bab" stroke="#969bab" stroke-width="1.51"/><path d="M45,12L36,11L39,17Z" fill="#d0c9c7" stroke="#d0c9c7" stroke-width="1.51"/><path d="M32,9L36,11L38,4Z" fill="#bfbabf" stroke="#bfbabf" stroke-width="1.51"/><path d="M58,84L63,83L58,76Z" fill="#8d8e9e" stroke="#8d8e9e" stroke-width="1.51"/><path d="M25,13L23,18L32,19Z" fill="#f1eeeb" stroke="#f1eeeb" stroke-width="1.51"/><path d="M77,78L79,71L71,69Z" fill="#949cae" stroke="#949cae" stroke-width="1.51"/><path d="M30,78L32,86L39,84Z" fill="#9e9ca8" stroke="#9e9ca8" stroke-width="1.51"/><path d="M20,71L25,79L26,69Z" fill="#c2c4cb" stroke="#c2c4cb" stroke-width="1.51"/><path d="M20,71L17,77L25,79Z" fill="#c0c2cd" stroke="#c0c2cd" stroke-width="1.51"/><path d="M13,56L12,64L17,58Z" fill="#c6c3c8" stroke="#c6c3c8" stroke-width="1.51"/><path d="M3,56L12,64L13,56Z" fill="#b2b0b9" stroke="#b2b0b9" stroke-width="1.51"/><path d="M3,45L6,52L11,49Z" fill="#aca5ab" stroke="#aca5ab" stroke-width="1.51"/><path d="M11,49L6,52L13,56Z" fill="#b8b3b8" stroke="#b8b3b8" stroke-width="1.51"/><path d="M12,30L18,37L17,31Z" fill="#e4dfdc" stroke="#e4dfdc" stroke-width="1.51"/><path d="M19,24L12,30L17,31Z" fill="#ece8e6" stroke="#ece8e6" stroke-width="1.51"/><path d="M10,26L12,30L19,24Z" fill="#e4e0e2" stroke="#e4e0e2" stroke-width="1.51"/><path d="M70,10L66,11L72,19Z" fill="#bec1cc" stroke="#bec1cc" stroke-width="1.51"/><path d="M72,19L66,11L66,19Z" fill="#ccced4" stroke="#ccced4" stroke-width="1.51"/><path d="M23,18L18,20L23,24Z" fill="#f3f0ee" stroke="#f3f0ee" stroke-width="1.51"/><path d="M16,11L18,20L23,18Z" fill="#faf9f9" stroke="#faf9f9" stroke-width="1.51"/><path d="M83,37L86,32L79,33Z" fill="#9d9ba7" stroke="#9d9ba7" stroke-width="1.51"/><path d="M78,26L77,17L72,19Z" fill="#c0c2cd" stroke="#c0c2cd" stroke-width="1.51"/><path d="M91,32L86,32L93,39Z" fill="#8b889a" stroke="#8b889a" stroke-width="1.51"/><path d="M32,9L25,13L32,19Z" fill="#e0dbdc" stroke="#e0dbdc" stroke-width="1.51"/><path d="M51,5L49,13L57,11Z" fill="#b6b1b7" stroke="#b6b1b7" stroke-width="1.51"/><path d="M43,4L36,11L45,12Z" fill="#bcb4b7" stroke="#bcb4b7" stroke-width="1.51"/><path d="M36,11L32,9L32,19Z" fill="#d8d3d3" stroke="#d8d3d3" stroke-width="1.51"/><path d="M91,50L85,44L83,50Z" fill="#85818e" stroke="#85818e" stroke-width="1.51"/><path d="M85,44L93,39L83,37Z" fill="#8c8795" stroke="#8c8795" stroke-width="1.51"/><path d="M79,71L86,65L76,65Z" fill="#8b90a3" stroke="#8b90a3" stroke-width="1.51"/><path d="M83,72L86,65L79,71Z" fill="#848ba0" stroke="#848ba0" stroke-width="1.51"/><path d="M83,23L77,17L78,26Z" fill="#b5b7c3" stroke="#b5b7c3" stroke-width="1.51"/><path d="M24,84L32,86L30,78Z" fill="#a4a4b1" stroke="#a4a4b1" stroke-width="1.51"/><path d="M53,91L58,84L50,85Z" fill="#828091" stroke="#828091" stroke-width="1.51"/><path d="M71,78L77,78L71,69Z" fill="#959eb0" stroke="#959eb0" stroke-width="1.51"/><path d="M78,83L77,78L71,78Z" fill="#848da4" stroke="#848da4" stroke-width="1.51"/><path d="M12,64L12,69L18,64Z" fill="#c3c4cc" stroke="#c3c4cc" stroke-width="1.51"/><path d="M25,79L24,84L30,78Z" fill="#adadb9" stroke="#adadb9" stroke-width="1.51"/><path d="M6,69L12,69L12,64Z" fill="#b1b3c0" stroke="#b1b3c0" stroke-width="1.51"/><path d="M3,45L11,49L11,45Z" fill="#b4acaf" stroke="#b4acaf" stroke-width="1.51"/><path d="M59,6L51,5L57,11Z" fill="#aba7b1" stroke="#aba7b1" stroke-width="1.51"/><path d="M86,32L83,23L78,26Z" fill="#a7a7b5" stroke="#a7a7b5" stroke-width="1.51"/><path d="M77,78L83,72L79,71Z" fill="#8891a7" stroke="#8891a7" stroke-width="1.51"/><path d="M66,11L59,6L57,11Z" fill="#b2b0ba" stroke="#b2b0ba" stroke-width="1.51"/><path d="M65,4L59,6L66,11Z" fill="#a6a6b4" stroke="#a6a6b4" stroke-width="1.51"/><path d="M91,50L83,50L90,58Z" fill="#807d8e" stroke="#807d8e" stroke-width="1.51"/><path d="M86,32L90,23L83,23Z" fill="#9e9faf" stroke="#9e9faf" stroke-width="1.51"/><path d="M90,58L83,50L83,58Z" fill="#858394" stroke="#858394" stroke-width="1.51"/><path d="M9,40L3,45L11,45Z" fill="#b4abaf" stroke="#b4abaf" stroke-width="1.51"/><path d="M6,31L6,39L9,40Z" fill="#b9b3ba" stroke="#b9b3ba" stroke-width="1.51"/><path d="M6,31L9,40L12,30Z" fill="#c6c1c6" stroke="#c6c1c6" stroke-width="1.51"/><path d="M12,69L17,77L20,71Z" fill="#caced7" stroke="#caced7" stroke-width="1.51"/><path d="M86,65L90,58L83,58Z" fill="#808295" stroke="#808295" stroke-width="1.51"/><path d="M90,64L90,58L86,65Z" fill="#797c92" stroke="#797c92" stroke-width="1.51"/><path d="M77,13L70,10L72,19Z" fill="#bfc4d0" stroke="#bfc4d0" stroke-width="1.51"/><path d="M51,5L43,4L45,12Z" fill="#aea6ab" stroke="#aea6ab" stroke-width="1.51"/><path d="M18,20L10,26L19,24Z" fill="#f1efee" stroke="#f1efee" stroke-width="1.51"/><path d="M10,17L10,26L18,20Z" fill="#e7e6ea" stroke="#e7e6ea" stroke-width="1.51"/><path d="M63,83L71,85L65,79Z" fill="#878c9f" stroke="#878c9f" stroke-width="1.51"/><path d="M58,84L58,90L63,83Z" fill="#828396" stroke="#828396" stroke-width="1.51"/><path d="M53,91L58,90L58,84Z" fill="#7d7c90" stroke="#7d7c90" stroke-width="1.51"/><path d="M50,85L45,83L44,92Z" fill="#86808d" stroke="#86808d" stroke-width="1.51"/><path d="M18,85L24,84L25,79Z" fill="#acaebd" stroke="#acaebd" stroke-width="1.51"/><path d="M44,92L45,83L39,84Z" fill="#898591" stroke="#898591" stroke-width="1.51"/><path d="M64,91L71,85L63,83Z" fill="#7d8298" stroke="#7d8298" stroke-width="1.51"/><path d="M77,78L83,79L83,72Z" fill="#7f87a0" stroke="#7f87a0" stroke-width="1.51"/><path d="M43,4L38,4L36,11Z" fill="#b4adb4" stroke="#b4adb4" stroke-width="1.51"/><path d="M32,9L26,3L25,13Z" fill="#cbc8cf" stroke="#cbc8cf" stroke-width="1.51"/><path d="M77,17L77,13L72,19Z" fill="#c4c9d4" stroke="#c4c9d4" stroke-width="1.51"/><path d="M84,12L77,13L77,17Z" fill="#b0b4c5" stroke="#b0b4c5" stroke-width="1.51"/><path d="M37,92L44,92L39,84Z" fill="#868191" stroke="#868191" stroke-width="1.51"/><path d="M37,92L39,84L32,86Z" fill="#908c9c" stroke="#908c9c" stroke-width="1.51"/><path d="M99,45L91,45L91,50Z" fill="#756f81" stroke="#756f81" stroke-width="1.51"/><path d="M91,73L90,64L86,65Z" fill="#767b94" stroke="#767b94" stroke-width="1.51"/><path d="M10,26L6,31L12,30Z" fill="#cecad0" stroke="#cecad0" stroke-width="1.51"/><path d="M6,39L3,45L9,40Z" fill="#afa8ae" stroke="#afa8ae" stroke-width="1.51"/><path d="M6,52L3,56L13,56Z" fill="#aca7b1" stroke="#aca7b1" stroke-width="1.51"/><path d="M-1,43L3,45L6,39Z" fill="#a098a2" stroke="#a098a2" stroke-width="1.51"/><path d="M38,4L32,5L32,9Z" fill="#b9b4bc" stroke="#b9b4bc" stroke-width="1.51"/><path d="M25,13L16,11L23,18Z" fill="#edebee" stroke="#edebee" stroke-width="1.51"/><path d="M93,39L86,32L83,37Z" fill="#908c9c" stroke="#908c9c" stroke-width="1.51"/><path d="M83,23L86,16L77,17Z" fill="#b2b5c5" stroke="#b2b5c5" stroke-width="1.51"/><path d="M97,39L91,45L99,45Z" fill="#736d81" stroke="#736d81" stroke-width="1.51"/><path d="M97,39L93,39L91,45Z" fill="#7a7687" stroke="#7a7687" stroke-width="1.51"/><path d="M91,45L93,39L85,44Z" fill="#827c8b" stroke="#827c8b" stroke-width="1.51"/><path d="M-3,49L3,56L6,52Z" fill="#97929f" stroke="#97929f" stroke-width="1.51"/><path d="M12,69L11,78L17,77Z" fill="#b9bdcb" stroke="#b9bdcb" stroke-width="1.51"/><path d="M32,91L37,92L32,86Z" fill="#8d8a9c" stroke="#8d8a9c" stroke-width="1.51"/><path d="M58,90L64,91L63,83Z" fill="#7c7e93" stroke="#7c7e93" stroke-width="1.51"/><path d="M66,97L64,91L58,90Z" fill="#70728b" stroke="#70728b" stroke-width="1.51"/><path d="M56,100L58,90L53,91Z" fill="#716f86" stroke="#716f86" stroke-width="1.51"/><path d="M69,4L65,4L66,11Z" fill="#a2a4b4" stroke="#a2a4b4" stroke-width="1.51"/><path d="M59,-4L49,-1L51,5Z" fill="#8e8a9a" stroke="#8e8a9a" stroke-width="1.51"/><path d="M51,5L49,-1L43,4Z" fill="#9b949f" stroke="#9b949f" stroke-width="1.51"/><path d="M69,4L66,11L70,10Z" fill="#aaacbb" stroke="#aaacbb" stroke-width="1.51"/><path d="M83,72L91,73L86,65Z" fill="#7a8199" stroke="#7a8199" stroke-width="1.51"/><path d="M71,85L78,83L71,78Z" fill="#848ca3" stroke="#848ca3" stroke-width="1.51"/><path d="M77,92L78,83L71,85Z" fill="#747c98" stroke="#747c98" stroke-width="1.51"/><path d="M26,93L32,91L32,86Z" fill="#918fa1" stroke="#918fa1" stroke-width="1.51"/><path d="M3,56L5,66L12,64Z" fill="#a6a5b3" stroke="#a6a5b3" stroke-width="1.51"/><path d="M17,77L18,85L25,79Z" fill="#b5b8c5" stroke="#b5b8c5" stroke-width="1.51"/><path d="M78,83L83,79L77,78Z" fill="#7a829c" stroke="#7a829c" stroke-width="1.51"/><path d="M5,66L6,69L12,64Z" fill="#a8a9b8" stroke="#a8a9b8" stroke-width="1.51"/><path d="M24,84L26,93L32,86Z" fill="#9999ab" stroke="#9999ab" stroke-width="1.51"/><path d="M64,91L70,90L71,85Z" fill="#767c95" stroke="#767c95" stroke-width="1.51"/><path d="M86,84L90,79L83,79Z" fill="#67708f" stroke="#67708f" stroke-width="1.51"/><path d="M77,6L69,4L70,10Z" fill="#a1a6b8" stroke="#a1a6b8" stroke-width="1.51"/><path d="M6,69L11,78L12,69Z" fill="#adb2c2" stroke="#adb2c2" stroke-width="1.51"/><path d="M11,84L18,85L17,77Z" fill="#afb3c4" stroke="#afb3c4" stroke-width="1.51"/><path d="M59,-4L59,6L65,4Z" fill="#9392a4" stroke="#9392a4" stroke-width="1.51"/><path d="M59,-4L51,5L59,6Z" fill="#9693a2" stroke="#9693a2" stroke-width="1.51"/><path d="M43,4L39,-3L38,4Z" fill="#9f98a3" stroke="#9f98a3" stroke-width="1.51"/><path d="M31,-3L26,3L32,5Z" fill="#aca8b6" stroke="#aca8b6" stroke-width="1.51"/><path d="M77,13L77,6L70,10Z" fill="#a9aec0" stroke="#a9aec0" stroke-width="1.51"/><path d="M91,32L90,23L86,32Z" fill="#9593a5" stroke="#9593a5" stroke-width="1.51"/><path d="M97,24L90,23L91,32Z" fill="#8f8ea3" stroke="#8f8ea3" stroke-width="1.51"/><path d="M20,4L16,11L25,13Z" fill="#d9d8e0" stroke="#d9d8e0" stroke-width="1.51"/><path d="M10,26L5,25L6,31Z" fill="#c5c3cc" stroke="#c5c3cc" stroke-width="1.51"/><path d="M-3,36L-1,43L6,39Z" fill="#9c95a2" stroke="#9c95a2" stroke-width="1.51"/><path d="M10,17L5,25L10,26Z" fill="#d2d0d8" stroke="#d2d0d8" stroke-width="1.51"/><path d="M45,99L44,92L37,92Z" fill="#787285" stroke="#787285" stroke-width="1.51"/><path d="M45,99L50,96L44,92Z" fill="#706a7e" stroke="#706a7e" stroke-width="1.51"/><path d="M44,92L50,96L53,91Z" fill="#757184" stroke="#757184" stroke-width="1.51"/><path d="M64,91L66,97L70,90Z" fill="#6e728e" stroke="#6e728e" stroke-width="1.51"/><path d="M13,13L10,17L18,20Z" fill="#f1f1f5" stroke="#f1f1f5" stroke-width="1.51"/><path d="M90,23L86,16L83,23Z" fill="#a5a7b9" stroke="#a5a7b9" stroke-width="1.51"/><path d="M16,11L13,13L18,20Z" fill="#f1f1f5" stroke="#f1f1f5" stroke-width="1.51"/><path d="M3,45L-3,49L6,52Z" fill="#98929d" stroke="#98929d" stroke-width="1.51"/><path d="M3,56L-2,65L5,66Z" fill="#9292a5" stroke="#9292a5" stroke-width="1.51"/><path d="M-3,36L6,39L6,31Z" fill="#aaa5b0" stroke="#aaa5b0" stroke-width="1.51"/><path d="M93,39L97,33L91,32Z" fill="#827f93" stroke="#827f93" stroke-width="1.51"/><path d="M99,45L91,50L99,51Z" fill="#6e697e" stroke="#6e697e" stroke-width="1.51"/><path d="M16,11L13,5L13,13Z" fill="#d4d4e0" stroke="#d4d4e0" stroke-width="1.51"/><path d="M32,5L26,3L32,9Z" fill="#bdb9c2" stroke="#bdb9c2" stroke-width="1.51"/><path d="M31,-3L32,5L38,4Z" fill="#a9a4b0" stroke="#a9a4b0" stroke-width="1.51"/><path d="M90,79L83,72L83,79Z" fill="#747c98" stroke="#747c98" stroke-width="1.51"/><path d="M90,79L91,73L83,72Z" fill="#727a97" stroke="#727a97" stroke-width="1.51"/><path d="M98,58L91,50L90,58Z" fill="#727187" stroke="#727187" stroke-width="1.51"/><path d="M92,10L84,12L86,16Z" fill="#979bb2" stroke="#979bb2" stroke-width="1.51"/><path d="M86,16L84,12L77,17Z" fill="#adb1c3" stroke="#adb1c3" stroke-width="1.51"/><path d="M84,12L77,6L77,13Z" fill="#a1a5ba" stroke="#a1a5ba" stroke-width="1.51"/><path d="M71,-2L66,0L69,4Z" fill="#8a8da4" stroke="#8a8da4" stroke-width="1.51"/><path d="M69,4L66,0L65,4Z" fill="#9395a9" stroke="#9395a9" stroke-width="1.51"/><path d="M18,91L26,93L24,84Z" fill="#9b9cb0" stroke="#9b9cb0" stroke-width="1.51"/><path d="M32,98L36,99L37,92Z" fill="#7c788e" stroke="#7c788e" stroke-width="1.51"/><path d="M98,58L90,58L97,64Z" fill="#6b6d86" stroke="#6b6d86" stroke-width="1.51"/><path d="M97,39L97,33L93,39Z" fill="#7b768b" stroke="#7b768b" stroke-width="1.51"/><path d="M90,23L91,17L86,16Z" fill="#a1a3b8" stroke="#a1a3b8" stroke-width="1.51"/><path d="M99,45L97,33L97,39Z" fill="#736f84" stroke="#736f84" stroke-width="1.51"/><path d="M97,64L90,58L90,64Z" fill="#71738c" stroke="#71738c" stroke-width="1.51"/><path d="M98,58L99,51L91,50Z" fill="#6d6a81" stroke="#6d6a81" stroke-width="1.51"/><path d="M43,-4L39,-3L43,4Z" fill="#928b98" stroke="#928b98" stroke-width="1.51"/><path d="M43,-4L43,4L49,-1Z" fill="#908894" stroke="#908894" stroke-width="1.51"/><path d="M-1,43L-3,49L3,45Z" fill="#908895" stroke="#908895" stroke-width="1.51"/><path d="M5,66L-3,71L6,69Z" fill="#9295aa" stroke="#9295aa" stroke-width="1.51"/><path d="M44,-7L43,-4L49,-1Z" fill="#827a89" stroke="#827a89" stroke-width="1.51"/><path d="M91,73L97,64L90,64Z" fill="#6e728e" stroke="#6e728e" stroke-width="1.51"/><path d="M26,3L20,4L25,13Z" fill="#c9c8d1" stroke="#c9c8d1" stroke-width="1.51"/><path d="M23,-1L20,4L26,3Z" fill="#b6b5c4" stroke="#b6b5c4" stroke-width="1.51"/><path d="M56,100L66,97L58,90Z" fill="#6a6b85" stroke="#6a6b85" stroke-width="1.51"/><path d="M36,99L45,99L37,92Z" fill="#757085" stroke="#757085" stroke-width="1.51"/><path d="M-2,30L-3,36L6,31Z" fill="#a39fae" stroke="#a39fae" stroke-width="1.51"/><path d="M-1,43L-10,45L-3,49Z" fill="#7f7788" stroke="#7f7788" stroke-width="1.51"/><path d="M10,17L5,18L5,25Z" fill="#cfced8" stroke="#cfced8" stroke-width="1.51"/><path d="M3,11L5,18L10,17Z" fill="#cacad8" stroke="#cacad8" stroke-width="1.51"/><path d="M3,11L10,17L13,13Z" fill="#cecedc" stroke="#cecedc" stroke-width="1.51"/><path d="M4,78L11,78L6,69Z" fill="#9da2b7" stroke="#9da2b7" stroke-width="1.51"/><path d="M4,78L11,84L11,78Z" fill="#999db3" stroke="#999db3" stroke-width="1.51"/><path d="M11,78L11,84L17,77Z" fill="#abafc1" stroke="#abafc1" stroke-width="1.51"/><path d="M18,85L18,91L24,84Z" fill="#a6a7ba" stroke="#a6a7ba" stroke-width="1.51"/><path d="M-2,30L6,31L5,25Z" fill="#b3b0bc" stroke="#b3b0bc" stroke-width="1.51"/><path d="M66,0L59,-4L65,4Z" fill="#898a9f" stroke="#898a9f" stroke-width="1.51"/><path d="M59,-7L59,-4L65,-9Z" fill="#70708a" stroke="#70708a" stroke-width="1.51"/><path d="M91,73L99,70L97,64Z" fill="#656b8a" stroke="#656b8a" stroke-width="1.51"/><path d="M86,84L83,79L78,83Z" fill="#6e7693" stroke="#6e7693" stroke-width="1.51"/><path d="M77,-3L71,-2L77,6Z" fill="#8288a2" stroke="#8288a2" stroke-width="1.51"/><path d="M97,24L91,17L90,23Z" fill="#9596ad" stroke="#9596ad" stroke-width="1.51"/><path d="M86,91L86,84L78,83Z" fill="#636a8b" stroke="#636a8b" stroke-width="1.51"/><path d="M70,90L77,92L71,85Z" fill="#747b97" stroke="#747b97" stroke-width="1.51"/><path d="M56,100L53,91L50,96Z" fill="#6d6a82" stroke="#6d6a82" stroke-width="1.51"/><path d="M-3,49L-4,57L3,56Z" fill="#888496" stroke="#888496" stroke-width="1.51"/><path d="M-9,51L-4,57L-3,49Z" fill="#797489" stroke="#797489" stroke-width="1.51"/><path d="M11,84L18,91L18,85Z" fill="#a5a8bd" stroke="#a5a8bd" stroke-width="1.51"/><path d="M32,98L37,92L32,91Z" fill="#838195" stroke="#838195" stroke-width="1.51"/><path d="M-2,24L-2,30L5,25Z" fill="#aba8b8" stroke="#aba8b8" stroke-width="1.51"/><path d="M32,98L32,91L26,93Z" fill="#87859a" stroke="#87859a" stroke-width="1.51"/><path d="M70,97L77,92L70,90Z" fill="#6a7290" stroke="#6a7290" stroke-width="1.51"/><path d="M39,-3L31,-3L38,4Z" fill="#9a95a4" stroke="#9a95a4" stroke-width="1.51"/><path d="M36,-8L31,-3L39,-3Z" fill="#8b8698" stroke="#8b8698" stroke-width="1.51"/><path d="M26,97L32,98L26,93Z" fill="#84839b" stroke="#84839b" stroke-width="1.51"/><path d="M-4,57L-2,65L3,56Z" fill="#87869a" stroke="#87869a" stroke-width="1.51"/><path d="M45,99L56,100L50,96Z" fill="#69647c" stroke="#69647c" stroke-width="1.51"/><path d="M36,99L56,100L45,99Z" fill="#686278" stroke="#686278" stroke-width="1.51"/><path d="M-1,77L4,78L6,69Z" fill="#8e93ab" stroke="#8e93ab" stroke-width="1.51"/><path d="M11,93L17,96L18,91Z" fill="#9496b0" stroke="#9496b0" stroke-width="1.51"/><path d="M97,33L97,24L91,32Z" fill="#85839a" stroke="#85839a" stroke-width="1.51"/><path d="M98,17L97,24L97,33Z" fill="#86859e" stroke="#86859e" stroke-width="1.51"/><path d="M66,97L70,97L70,90Z" fill="#686d8b" stroke="#686d8b" stroke-width="1.51"/><path d="M56,100L70,97L66,97Z" fill="#636683" stroke="#636683" stroke-width="1.51"/><path d="M77,6L71,-2L69,4Z" fill="#9095ac" stroke="#9095ac" stroke-width="1.51"/><path d="M86,3L77,6L84,12Z" fill="#8c90aa" stroke="#8c90aa" stroke-width="1.51"/><path d="M17,96L26,97L26,93Z" fill="#8c8da5" stroke="#8c8da5" stroke-width="1.51"/><path d="M32,98L11,98L36,99Z" fill="#818099" stroke="#818099" stroke-width="1.51"/><path d="M20,4L13,5L16,11Z" fill="#d1d2de" stroke="#d1d2de" stroke-width="1.51"/><path d="M31,-3L23,-1L26,3Z" fill="#a7a5b6" stroke="#a7a5b6" stroke-width="1.51"/><path d="M31,-3L23,-10L23,-1Z" fill="#9795aa" stroke="#9795aa" stroke-width="1.51"/><path d="M43,-4L44,-7L39,-3Z" fill="#827c8d" stroke="#827c8d" stroke-width="1.51"/><path d="M51,-10L44,-7L49,-1Z" fill="#787285" stroke="#787285" stroke-width="1.51"/><path d="M51,-10L49,-1L59,-4Z" fill="#7a768b" stroke="#7a768b" stroke-width="1.51"/><path d="M18,-4L13,5L20,4Z" fill="#bdbdce" stroke="#bdbdce" stroke-width="1.51"/><path d="M5,18L-2,24L5,25Z" fill="#bab9c7" stroke="#bab9c7" stroke-width="1.51"/><path d="M-9,31L-8,39L-3,36Z" fill="#837e93" stroke="#837e93" stroke-width="1.51"/><path d="M-3,17L-2,24L5,18Z" fill="#b2b2c4" stroke="#b2b2c4" stroke-width="1.51"/><path d="M65,-9L59,-4L66,0Z" fill="#787992" stroke="#787992" stroke-width="1.51"/><path d="M97,64L99,70L98,58Z" fill="#636683" stroke="#636683" stroke-width="1.51"/><path d="M98,58L99,70L99,51Z" fill="#646480" stroke="#646480" stroke-width="1.51"/><path d="M97,80L99,70L91,73Z" fill="#61698a" stroke="#61698a" stroke-width="1.51"/><path d="M97,80L91,73L90,79Z" fill="#61698a" stroke="#61698a" stroke-width="1.51"/><path d="M-2,65L-3,71L5,66Z" fill="#888aa1" stroke="#888aa1" stroke-width="1.51"/><path d="M-10,65L-3,71L-2,65Z" fill="#737792" stroke="#737792" stroke-width="1.51"/><path d="M44,-7L36,-8L39,-3Z" fill="#807a8d" stroke="#807a8d" stroke-width="1.51"/><path d="M51,-10L36,-8L44,-7Z" fill="#726b7f" stroke="#726b7f" stroke-width="1.51"/><path d="M-3,36L-8,39L-1,43Z" fill="#888294" stroke="#888294" stroke-width="1.51"/><path d="M-4,57L-10,65L-2,65Z" fill="#74758e" stroke="#74758e" stroke-width="1.51"/><path d="M-9,31L-3,36L-2,30Z" fill="#8f8a9e" stroke="#8f8a9e" stroke-width="1.51"/><path d="M86,84L92,84L90,79Z" fill="#5d6587" stroke="#5d6587" stroke-width="1.51"/><path d="M91,90L92,84L86,84Z" fill="#545b80" stroke="#545b80" stroke-width="1.51"/><path d="M86,91L78,83L77,92Z" fill="#636b8b" stroke="#636b8b" stroke-width="1.51"/><path d="M-10,45L-9,51L-3,49Z" fill="#736d82" stroke="#736d82" stroke-width="1.51"/><path d="M59,-7L51,-10L59,-4Z" fill="#706e87" stroke="#706e87" stroke-width="1.51"/><path d="M-3,71L-1,77L6,69Z" fill="#888da6" stroke="#888da6" stroke-width="1.51"/><path d="M4,78L4,86L11,84Z" fill="#888da7" stroke="#888da7" stroke-width="1.51"/><path d="M18,91L17,96L26,93Z" fill="#9595ae" stroke="#9595ae" stroke-width="1.51"/><path d="M91,17L92,10L86,16Z" fill="#989bb3" stroke="#989bb3" stroke-width="1.51"/><path d="M96,12L92,10L91,17Z" fill="#8a8ea9" stroke="#8a8ea9" stroke-width="1.51"/><path d="M70,97L79,96L77,92Z" fill="#606889" stroke="#606889" stroke-width="1.51"/><path d="M84,99L79,96L70,97Z" fill="#555d81" stroke="#555d81" stroke-width="1.51"/><path d="M79,96L86,91L77,92Z" fill="#586184" stroke="#586184" stroke-width="1.51"/><path d="M11,93L18,91L11,84Z" fill="#9598b1" stroke="#9598b1" stroke-width="1.51"/><path d="M26,97L11,98L32,98Z" fill="#8687a1" stroke="#8687a1" stroke-width="1.51"/><path d="M-9,24L-9,31L-2,30Z" fill="#8c89a0" stroke="#8c89a0" stroke-width="1.51"/><path d="M13,5L3,11L13,13Z" fill="#c1c2d2" stroke="#c1c2d2" stroke-width="1.51"/><path d="M70,-8L65,-9L66,0Z" fill="#717490" stroke="#717490" stroke-width="1.51"/><path d="M59,-7L65,-9L51,-10Z" fill="#696883" stroke="#696883" stroke-width="1.51"/><path d="M86,3L77,-3L77,6Z" fill="#7d829e" stroke="#7d829e" stroke-width="1.51"/><path d="M-8,39L-10,45L-1,43Z" fill="#7b7487" stroke="#7b7487" stroke-width="1.51"/><path d="M91,5L86,3L84,12Z" fill="#7f84a1" stroke="#7f84a1" stroke-width="1.51"/><path d="M36,-8L33,-9L31,-3Z" fill="#858197" stroke="#858197" stroke-width="1.51"/><path d="M23,-1L18,-4L20,4Z" fill="#b0afc2" stroke="#b0afc2" stroke-width="1.51"/><path d="M13,5L6,3L3,11Z" fill="#a9aac0" stroke="#a9aac0" stroke-width="1.51"/><path d="M51,-10L33,-9L36,-8Z" fill="#746e84" stroke="#746e84" stroke-width="1.51"/><path d="M99,45L98,17L97,33Z" fill="#7b7991" stroke="#7b7991" stroke-width="1.51"/><path d="M97,24L98,17L91,17Z" fill="#9193ab" stroke="#9193ab" stroke-width="1.51"/><path d="M0,85L4,86L4,78Z" fill="#787d9b" stroke="#787d9b" stroke-width="1.51"/><path d="M98,85L97,80L92,84Z" fill="#4c557b" stroke="#4c557b" stroke-width="1.51"/><path d="M92,84L97,80L90,79Z" fill="#576083" stroke="#576083" stroke-width="1.51"/><path d="M70,-8L66,0L71,-2Z" fill="#797d98" stroke="#797d98" stroke-width="1.51"/><path d="M4,86L11,93L11,84Z" fill="#8689a6" stroke="#8689a6" stroke-width="1.51"/><path d="M-8,39L-9,31L-10,45Z" fill="#757086" stroke="#757086" stroke-width="1.51"/><path d="M-9,24L-2,30L-2,24Z" fill="#9896ab" stroke="#9896ab" stroke-width="1.51"/><path d="M98,17L96,12L91,17Z" fill="#8f92ad" stroke="#8f92ad" stroke-width="1.51"/><path d="M92,10L91,5L84,12Z" fill="#8487a4" stroke="#8487a4" stroke-width="1.51"/><path d="M3,11L-3,17L5,18Z" fill="#b7b8ca" stroke="#b7b8ca" stroke-width="1.51"/><path d="M77,-3L70,-8L71,-2Z" fill="#737997" stroke="#737997" stroke-width="1.51"/><path d="M77,-9L70,-8L77,-3Z" fill="#666d8e" stroke="#666d8e" stroke-width="1.51"/><path d="M23,-10L18,-4L23,-1Z" fill="#9b9ab1" stroke="#9b9ab1" stroke-width="1.51"/><path d="M-9,51L-11,56L-4,57Z" fill="#6d6a83" stroke="#6d6a83" stroke-width="1.51"/><path d="M-3,71L-7,80L-1,77Z" fill="#6f7695" stroke="#6f7695" stroke-width="1.51"/><path d="M-10,45L-11,56L-9,51Z" fill="#67637b" stroke="#67637b" stroke-width="1.51"/><path d="M-11,18L-11,56L-10,45Z" fill="#6d687f" stroke="#6d687f" stroke-width="1.51"/><path d="M86,3L85,-3L77,-3Z" fill="#6a7091" stroke="#6a7091" stroke-width="1.51"/><path d="M98,3L91,5L92,10Z" fill="#6c7193" stroke="#6c7193" stroke-width="1.51"/><path d="M86,91L91,90L86,84Z" fill="#535a80" stroke="#535a80" stroke-width="1.51"/><path d="M92,97L91,90L86,91Z" fill="#444c75" stroke="#444c75" stroke-width="1.51"/><path d="M-11,56L-10,65L-4,57Z" fill="#6a6984" stroke="#6a6984" stroke-width="1.51"/><path d="M-1,77L0,85L4,78Z" fill="#797e9c" stroke="#797e9c" stroke-width="1.51"/><path d="M4,86L3,91L11,93Z" fill="#757999" stroke="#757999" stroke-width="1.51"/><path d="M-7,80L0,85L-1,77Z" fill="#686e8f" stroke="#686e8f" stroke-width="1.51"/><path d="M10,-3L6,3L13,5Z" fill="#9fa0b9" stroke="#9fa0b9" stroke-width="1.51"/><path d="M3,11L-4,13L-3,17Z" fill="#a3a4bc" stroke="#a3a4bc" stroke-width="1.51"/><path d="M-11,18L-9,24L-3,17Z" fill="#9292ac" stroke="#9292ac" stroke-width="1.51"/><path d="M-3,17L-9,24L-2,24Z" fill="#9c9bb1" stroke="#9c9bb1" stroke-width="1.51"/><path d="M-9,31L-11,18L-10,45Z" fill="#7a7790" stroke="#7a7790" stroke-width="1.51"/><path d="M91,-1L85,-3L86,3Z" fill="#61678b" stroke="#61678b" stroke-width="1.51"/><path d="M-1,5L-4,13L3,11Z" fill="#9597b2" stroke="#9597b2" stroke-width="1.51"/><path d="M91,90L98,85L92,84Z" fill="#495278" stroke="#495278" stroke-width="1.51"/><path d="M97,80L98,85L99,70Z" fill="#525a7f" stroke="#525a7f" stroke-width="1.51"/><path d="M51,-10L23,-10L33,-9Z" fill="#767289" stroke="#767289" stroke-width="1.51"/><path d="M33,-9L23,-10L31,-3Z" fill="#88859c" stroke="#88859c" stroke-width="1.51"/><path d="M18,-4L10,-3L13,5Z" fill="#a6a7be" stroke="#a6a7be" stroke-width="1.51"/><path d="M-11,56L-10,71L-10,65Z" fill="#606281" stroke="#606281" stroke-width="1.51"/><path d="M-10,65L-10,71L-3,71Z" fill="#676c8b" stroke="#676c8b" stroke-width="1.51"/><path d="M11,93L11,98L17,96Z" fill="#8487a5" stroke="#8487a5" stroke-width="1.51"/><path d="M0,85L3,91L4,86Z" fill="#6c7193" stroke="#6c7193" stroke-width="1.51"/><path d="M-3,90L3,91L0,85Z" fill="#5f6589" stroke="#5f6589" stroke-width="1.51"/><path d="M3,99L11,98L11,93Z" fill="#6f7294" stroke="#6f7294" stroke-width="1.51"/><path d="M17,96L11,98L26,97Z" fill="#8e90ab" stroke="#8e90ab" stroke-width="1.51"/><path d="M36,99L3,99L56,100Z" fill="#78758f" stroke="#78758f" stroke-width="1.51"/><path d="M79,96L84,99L86,91Z" fill="#4d567c" stroke="#4d567c" stroke-width="1.51"/><path d="M91,90L97,92L98,85Z" fill="#3f4871" stroke="#3f4871" stroke-width="1.51"/><path d="M56,100L84,99L70,97Z" fill="#5e6485" stroke="#5e6485" stroke-width="1.51"/><path d="M18,-9L10,-3L18,-4Z" fill="#9a9bb4" stroke="#9a9bb4" stroke-width="1.51"/><path d="M6,3L-1,5L3,11Z" fill="#9597b1" stroke="#9597b1" stroke-width="1.51"/><path d="M70,-8L77,-9L65,-9Z" fill="#636889" stroke="#636889" stroke-width="1.51"/><path d="M65,-9L77,-9L51,-10Z" fill="#636684" stroke="#636684" stroke-width="1.51"/><path d="M84,-7L77,-9L77,-3Z" fill="#5c6387" stroke="#5c6387" stroke-width="1.51"/><path d="M23,-10L18,-9L18,-4Z" fill="#9292ac" stroke="#9292ac" stroke-width="1.51"/><path d="M-10,71L-7,80L-3,71Z" fill="#686f90" stroke="#686f90" stroke-width="1.51"/><path d="M85,-3L84,-7L77,-3Z" fill="#5e6588" stroke="#5e6588" stroke-width="1.51"/><path d="M91,5L91,-1L86,3Z" fill="#676d8f" stroke="#676d8f" stroke-width="1.51"/><path d="M98,3L91,-1L91,5Z" fill="#5e6389" stroke="#5e6389" stroke-width="1.51"/><path d="M98,3L92,10L96,12Z" fill="#727697" stroke="#727697" stroke-width="1.51"/><path d="M-4,13L-11,18L-3,17Z" fill="#999bb5" stroke="#999bb5" stroke-width="1.51"/><path d="M-1,-3L-1,5L6,3Z" fill="#7c7f9f" stroke="#7c7f9f" stroke-width="1.51"/><path d="M5,-4L6,3L10,-3Z" fill="#8789a7" stroke="#8789a7" stroke-width="1.51"/><path d="M90,-9L84,-7L85,-3Z" fill="#4b537a" stroke="#4b537a" stroke-width="1.51"/><path d="M-10,12L-11,18L-4,13Z" fill="#898ba8" stroke="#898ba8" stroke-width="1.51"/><path d="M-9,24L-11,18L-9,31Z" fill="#84839d" stroke="#84839d" stroke-width="1.51"/><path d="M92,97L97,92L91,90Z" fill="#3a446f" stroke="#3a446f" stroke-width="1.51"/><path d="M84,99L92,97L86,91Z" fill="#424b74" stroke="#424b74" stroke-width="1.51"/><path d="M-7,80L-3,90L0,85Z" fill="#5b6186" stroke="#5b6186" stroke-width="1.51"/><path d="M3,91L3,99L11,93Z" fill="#696d91" stroke="#696d91" stroke-width="1.51"/><path d="M91,-1L90,-9L85,-3Z" fill="#4e557d" stroke="#4e557d" stroke-width="1.51"/><path d="M98,17L98,3L96,12Z" fill="#76799a" stroke="#76799a" stroke-width="1.51"/><path d="M99,-3L98,3L98,17Z" fill="#60648a" stroke="#60648a" stroke-width="1.51"/><path d="M10,-11L5,-4L10,-3Z" fill="#7a7d9d" stroke="#7a7d9d" stroke-width="1.51"/><path d="M-9,6L-10,12L-4,13Z" fill="#7b7e9e" stroke="#7b7e9e" stroke-width="1.51"/><path d="M-9,6L-4,13L-1,5Z" fill="#7e80a0" stroke="#7e80a0" stroke-width="1.51"/><path d="M-2,97L3,99L3,91Z" fill="#545a82" stroke="#545a82" stroke-width="1.51"/><path d="M11,98L3,99L36,99Z" fill="#8c8eab" stroke="#8c8eab" stroke-width="1.51"/><path d="M92,97L96,97L97,92Z" fill="#303b67" stroke="#303b67" stroke-width="1.51"/><path d="M84,99L96,97L92,97Z" fill="#35406b" stroke="#35406b" stroke-width="1.51"/><path d="M5,-4L-1,-3L6,3Z" fill="#787b9c" stroke="#787b9c" stroke-width="1.51"/><path d="M18,-9L10,-11L10,-3Z" fill="#8587a5" stroke="#8587a5" stroke-width="1.51"/><path d="M23,-10L10,-11L18,-9Z" fill="#8b8daa" stroke="#8b8daa" stroke-width="1.51"/><path d="M51,-10L10,-11L23,-10Z" fill="#7c7a95" stroke="#7c7a95" stroke-width="1.51"/><path d="M-3,90L-2,97L3,91Z" fill="#545a81" stroke="#545a81" stroke-width="1.51"/><path d="M-7,80L-11,85L-3,90Z" fill="#4c547b" stroke="#4c547b" stroke-width="1.51"/><path d="M-10,71L-11,85L-7,80Z" fill="#525a7f" stroke="#525a7f" stroke-width="1.51"/><path d="M-11,56L-11,85L-10,71Z" fill="#5b6183" stroke="#5b6183" stroke-width="1.51"/><path d="M98,-7L90,-9L91,-1Z" fill="#3e4771" stroke="#3e4771" stroke-width="1.51"/><path d="M84,-7L90,-9L77,-9Z" fill="#4a527a" stroke="#4a527a" stroke-width="1.51"/><path d="M77,-9L90,-9L51,-10Z" fill="#5f6688" stroke="#5f6688" stroke-width="1.51"/><path d="M5,-10L-1,-3L5,-4Z" fill="#65698e" stroke="#65698e" stroke-width="1.51"/><path d="M-10,-3L-9,6L-1,5Z" fill="#60648a" stroke="#60648a" stroke-width="1.51"/><path d="M-8,92L-2,97L-3,90Z" fill="#444c75" stroke="#444c75" stroke-width="1.51"/><path d="M98,3L99,-3L91,-1Z" fill="#4c547c" stroke="#4c547c" stroke-width="1.51"/><path d="M99,45L99,-3L98,17Z" fill="#898aa5" stroke="#898aa5" stroke-width="1.51"/><path d="M-11,85L-8,92L-3,90Z" fill="#414973" stroke="#414973" stroke-width="1.51"/><path d="M-1,-3L-10,-3L-1,5Z" fill="#5e6389" stroke="#5e6389" stroke-width="1.51"/><path d="M10,-11L5,-10L5,-4Z" fill="#696d91" stroke="#696d91" stroke-width="1.51"/><path d="M99,-3L98,-7L91,-1Z" fill="#3f4872" stroke="#3f4872" stroke-width="1.51"/><path d="M-2,97L-7,99L3,99Z" fill="#414873" stroke="#414873" stroke-width="1.51"/><path d="M3,99L-7,99L56,100Z" fill="#898ca8" stroke="#898ca8" stroke-width="1.51"/><path d="M-8,92L-7,99L-2,97Z" fill="#37406c" stroke="#37406c" stroke-width="1.51"/><path d="M-11,85L-7,99L-8,92Z" fill="#343e6a" stroke="#343e6a" stroke-width="1.51"/><path d="M-9,6L-10,-3L-10,12Z" fill="#5d6288" stroke="#5d6288" stroke-width="1.51"/><path d="M-10,12L-10,-3L-11,18Z" fill="#6b6e92" stroke="#6b6e92" stroke-width="1.51"/><path d="M-10,-8L-10,-3L-1,-3Z" fill="#414873" stroke="#414873" stroke-width="1.51"/><path d="M5,-10L-3,-11L-1,-3Z" fill="#51577f" stroke="#51577f" stroke-width="1.51"/><path d="M10,-11L-3,-11L5,-10Z" fill="#555a82" stroke="#555a82" stroke-width="1.51"/><path d="M-3,-11L-10,-8L-1,-3Z" fill="#3f4672" stroke="#3f4672" stroke-width="1.51"/><path d="M-10,-3L-10,-8L-11,18Z" fill="#4f557e" stroke="#4f557e" stroke-width="1.51"/></svg>