<svg xmlns="http://www.w3.org/2000/svg" width="130" height="130"><path d="M80,81L52,79L51,108Z" fill="#afa49e" stroke="#afa49e" stroke-width="1.51"/><path d="M51,108L83,113L80,81Z" fill="#aaa19f" stroke="#aaa19f" stroke-width="1.51"/><path d="M83,113L106,108L80,81Z" fill="#a6a1a4" stroke="#a6a1a4" stroke-width="1.51"/><path d="M80,81L83,48L52,79Z" fill="#afa197" stroke="#afa197" stroke-width="1.51"/><path d="M106,108L108,77L80,81Z" fill="#a7a1a2" stroke="#a7a1a2" stroke-width="1.51"/><path d="M52,79L20,78L51,108Z" fill="#bcb3af" stroke="#bcb3af" stroke-width="1.51"/><path d="M22,52L20,78L52,79Z" fill="#c6bbb2" stroke="#c6bbb2" stroke-width="1.51"/><path d="M20,78L18,109L51,108Z" fill="#c2bdbb" stroke="#c2bdbb" stroke-width="1.51"/><path d="M51,108L80,142L83,113Z" fill="#a6a1a4" stroke="#a6a1a4" stroke-width="1.51"/><path d="M108,77L83,48L80,81Z" fill="#aca19c" stroke="#aca19c" stroke-width="1.51"/><path d="M46,142L80,142L51,108Z" fill="#a39fa4" stroke="#a39fa4" stroke-width="1.51"/><path d="M83,113L109,137L106,108Z" fill="#a0a2ab" stroke="#a0a2ab" stroke-width="1.51"/><path d="M83,48L53,45L52,79Z" fill="#b7a99c" stroke="#b7a99c" stroke-width="1.51"/><path d="M18,109L46,142L51,108Z" fill="#b8b6ba" stroke="#b8b6ba" stroke-width="1.51"/><path d="M53,45L22,52L52,79Z" fill="#c3b7ad" stroke="#c3b7ad" stroke-width="1.51"/><path d="M106,108L137,110L108,77Z" fill="#a1a2aa" stroke="#a1a2aa" stroke-width="1.51"/><path d="M80,142L109,137L83,113Z" fill="#9a9aa5" stroke="#9a9aa5" stroke-width="1.51"/><path d="M108,77L113,51L83,48Z" fill="#aea6a3" stroke="#aea6a3" stroke-width="1.51"/><path d="M140,80L113,51L108,77Z" fill="#a6a1a4" stroke="#a6a1a4" stroke-width="1.51"/><path d="M18,109L19,142L46,142Z" fill="#b6b6bf" stroke="#b6b6bf" stroke-width="1.51"/><path d="M20,78L-6,77L18,109Z" fill="#d0cbca" stroke="#d0cbca" stroke-width="1.51"/><path d="M18,109L-14,142L19,142Z" fill="#c2c6d1" stroke="#c2c6d1" stroke-width="1.51"/><path d="M22,52L-6,77L20,78Z" fill="#d3cac3" stroke="#d3cac3" stroke-width="1.51"/><path d="M109,137L137,110L106,108Z" fill="#9ca2af" stroke="#9ca2af" stroke-width="1.51"/><path d="M24,164L51,168L46,142Z" fill="#8f8c9d" stroke="#8f8c9d" stroke-width="1.51"/><path d="M46,142L51,168L80,142Z" fill="#8c8793" stroke="#8c8793" stroke-width="1.51"/><path d="M80,142L106,165L109,137Z" fill="#858699" stroke="#858699" stroke-width="1.51"/><path d="M137,110L140,80L108,77Z" fill="#9c9da7" stroke="#9c9da7" stroke-width="1.51"/><path d="M-6,77L-13,105L18,109Z" fill="#c5c4c8" stroke="#c5c4c8" stroke-width="1.51"/><path d="M51,168L77,172L80,142Z" fill="#7c7787" stroke="#7c7787" stroke-width="1.51"/><path d="M109,137L139,136L137,110Z" fill="#919aae" stroke="#919aae" stroke-width="1.51"/><path d="M22,52L-7,47L-6,77Z" fill="#d7cfcb" stroke="#d7cfcb" stroke-width="1.51"/><path d="M53,45L24,20L22,52Z" fill="#d7cdc6" stroke="#d7cdc6" stroke-width="1.51"/><path d="M81,16L51,16L53,45Z" fill="#ccc2b9" stroke="#ccc2b9" stroke-width="1.51"/><path d="M81,16L53,45L83,48Z" fill="#c2b7af" stroke="#c2b7af" stroke-width="1.51"/><path d="M107,15L81,16L83,48Z" fill="#c5bfbc" stroke="#c5bfbc" stroke-width="1.51"/><path d="M107,15L83,48L113,51Z" fill="#bbb6b5" stroke="#bbb6b5" stroke-width="1.51"/><path d="M51,168L51,196L77,172Z" fill="#6d667c" stroke="#6d667c" stroke-width="1.51"/><path d="M19,142L24,164L46,142Z" fill="#9f9fae" stroke="#9f9fae" stroke-width="1.51"/><path d="M-10,166L24,164L19,142Z" fill="#a1a3b7" stroke="#a1a3b7" stroke-width="1.51"/><path d="M77,172L106,165L80,142Z" fill="#7a788d" stroke="#7a788d" stroke-width="1.51"/><path d="M51,16L24,20L53,45Z" fill="#d8cfc9" stroke="#d8cfc9" stroke-width="1.51"/><path d="M106,165L139,136L109,137Z" fill="#82899f" stroke="#82899f" stroke-width="1.51"/><path d="M137,110L168,105L140,80Z" fill="#848698" stroke="#848698" stroke-width="1.51"/><path d="M-6,77L-38,80L-13,105Z" fill="#a29eab" stroke="#a29eab" stroke-width="1.51"/><path d="M24,20L-7,47L22,52Z" fill="#e3ddd8" stroke="#e3ddd8" stroke-width="1.51"/><path d="M140,80L138,47L113,51Z" fill="#a39fa4" stroke="#a39fa4" stroke-width="1.51"/><path d="M138,47L107,15L113,51Z" fill="#b8b6ba" stroke="#b8b6ba" stroke-width="1.51"/><path d="M78,-11L46,-10L51,16Z" fill="#cec6c3" stroke="#cec6c3" stroke-width="1.51"/><path d="M-13,105L-14,142L18,109Z" fill="#bcbfca" stroke="#bcbfca" stroke-width="1.51"/><path d="M24,164L51,196L51,168Z" fill="#79768d" stroke="#79768d" stroke-width="1.51"/><path d="M77,172L107,198L106,165Z" fill="#63647f" stroke="#63647f" stroke-width="1.51"/><path d="M19,199L51,196L24,164Z" fill="#76748f" stroke="#76748f" stroke-width="1.51"/><path d="M140,80L165,51L138,47Z" fill="#8f8a96" stroke="#8f8a96" stroke-width="1.51"/><path d="M139,136L168,105L137,110Z" fill="#80869d" stroke="#80869d" stroke-width="1.51"/><path d="M-35,53L-38,80L-6,77Z" fill="#97909c" stroke="#97909c" stroke-width="1.51"/><path d="M-13,105L-39,110L-14,142Z" fill="#9599ae" stroke="#9599ae" stroke-width="1.51"/><path d="M-37,143L-10,166L-14,142Z" fill="#797e9c" stroke="#797e9c" stroke-width="1.51"/><path d="M-14,142L-10,166L19,142Z" fill="#9fa2b8" stroke="#9fa2b8" stroke-width="1.51"/><path d="M-38,80L-39,110L-13,105Z" fill="#8a8a9d" stroke="#8a8a9d" stroke-width="1.51"/><path d="M-41,21L-35,53L-7,47Z" fill="#a5a0ae" stroke="#a5a0ae" stroke-width="1.51"/><path d="M-7,47L-35,53L-6,77Z" fill="#b0a8ae" stroke="#b0a8ae" stroke-width="1.51"/><path d="M51,16L46,-10L24,20Z" fill="#e6e0dc" stroke="#e6e0dc" stroke-width="1.51"/><path d="M78,-11L51,16L81,16Z" fill="#d6cec8" stroke="#d6cec8" stroke-width="1.51"/><path d="M108,-10L78,-11L81,16Z" fill="#c4c1c4" stroke="#c4c1c4" stroke-width="1.51"/><path d="M-11,16L-7,47L24,20Z" fill="#eae6e5" stroke="#eae6e5" stroke-width="1.51"/><path d="M107,15L108,-10L81,16Z" fill="#d0ced0" stroke="#d0ced0" stroke-width="1.51"/><path d="M138,47L141,16L107,15Z" fill="#babac2" stroke="#babac2" stroke-width="1.51"/><path d="M173,76L165,51L140,80Z" fill="#7e7988" stroke="#7e7988" stroke-width="1.51"/><path d="M166,23L141,16L138,47Z" fill="#a1a0af" stroke="#a1a0af" stroke-width="1.51"/><path d="M17,-10L-11,16L24,20Z" fill="#faf8f7" stroke="#faf8f7" stroke-width="1.51"/><path d="M139,136L168,139L168,105Z" fill="#707895" stroke="#707895" stroke-width="1.51"/><path d="M106,165L143,170L139,136Z" fill="#6e7794" stroke="#6e7794" stroke-width="1.51"/><path d="M134,195L143,170L106,165Z" fill="#5a6285" stroke="#5a6285" stroke-width="1.51"/><path d="M51,196L81,202L77,172Z" fill="#625c74" stroke="#625c74" stroke-width="1.51"/><path d="M168,105L173,76L140,80Z" fill="#79788c" stroke="#79788c" stroke-width="1.51"/><path d="M81,202L107,198L77,172Z" fill="#5e5d79" stroke="#5e5d79" stroke-width="1.51"/><path d="M143,170L168,139L139,136Z" fill="#61698a" stroke="#61698a" stroke-width="1.51"/><path d="M168,105L199,77L173,76Z" fill="#63617c" stroke="#63617c" stroke-width="1.51"/><path d="M137,-7L108,-10L107,15Z" fill="#c0c3cd" stroke="#c0c3cd" stroke-width="1.51"/><path d="M-39,110L-37,143L-14,142Z" fill="#7c819e" stroke="#7c819e" stroke-width="1.51"/><path d="M46,-10L17,-10L24,20Z" fill="#e4e0e0" stroke="#e4e0e0" stroke-width="1.51"/><path d="M16,-43L17,-10L46,-10Z" fill="#bab8c3" stroke="#bab8c3" stroke-width="1.51"/><path d="M51,196L19,199L81,202Z" fill="#6b667f" stroke="#6b667f" stroke-width="1.51"/><path d="M-10,166L19,199L24,164Z" fill="#8b8ca7" stroke="#8b8ca7" stroke-width="1.51"/><path d="M-9,196L19,199L-10,166Z" fill="#7a7d9d" stroke="#7a7d9d" stroke-width="1.51"/><path d="M143,170L173,171L168,139Z" fill="#474f77" stroke="#474f77" stroke-width="1.51"/><path d="M107,198L134,195L106,165Z" fill="#575d7f" stroke="#575d7f" stroke-width="1.51"/><path d="M172,197L134,195L107,198Z" fill="#464f77" stroke="#464f77" stroke-width="1.51"/><path d="M141,16L137,-7L107,15Z" fill="#c5c9d3" stroke="#c5c9d3" stroke-width="1.51"/><path d="M165,51L166,23L138,47Z" fill="#918e9e" stroke="#918e9e" stroke-width="1.51"/><path d="M198,49L166,23L165,51Z" fill="#79768d" stroke="#79768d" stroke-width="1.51"/><path d="M171,-8L137,-7L141,16Z" fill="#a3a7bb" stroke="#a3a7bb" stroke-width="1.51"/><path d="M-40,170L-9,196L-10,166Z" fill="#5c6187" stroke="#5c6187" stroke-width="1.51"/><path d="M17,-10L-10,-8L-11,16Z" fill="#e4e4eb" stroke="#e4e4eb" stroke-width="1.51"/><path d="M-11,16L-41,21L-7,47Z" fill="#bcb9c4" stroke="#bcb9c4" stroke-width="1.51"/><path d="M-35,53L-41,21L-38,80Z" fill="#8a8496" stroke="#8a8496" stroke-width="1.51"/><path d="M-38,80L-41,21L-39,110Z" fill="#7e7889" stroke="#7e7889" stroke-width="1.51"/><path d="M-42,-8L-41,21L-11,16Z" fill="#b0b0c3" stroke="#b0b0c3" stroke-width="1.51"/><path d="M-37,143L-40,170L-10,166Z" fill="#5e6488" stroke="#5e6488" stroke-width="1.51"/><path d="M-39,110L-40,170L-37,143Z" fill="#61678a" stroke="#61678a" stroke-width="1.51"/><path d="M-41,21L-40,170L-39,110Z" fill="#76778f" stroke="#76778f" stroke-width="1.51"/><path d="M172,197L173,171L143,170Z" fill="#2f3b67" stroke="#2f3b67" stroke-width="1.51"/><path d="M201,113L199,77L168,105Z" fill="#5c5d7b" stroke="#5c5d7b" stroke-width="1.51"/><path d="M173,76L198,49L165,51Z" fill="#6d677d" stroke="#6d677d" stroke-width="1.51"/><path d="M201,113L168,105L168,139Z" fill="#5d6384" stroke="#5d6384" stroke-width="1.51"/><path d="M78,-11L46,-44L46,-10Z" fill="#a79fa8" stroke="#a79fa8" stroke-width="1.51"/><path d="M17,-10L-8,-45L-10,-8Z" fill="#bcbdce" stroke="#bcbdce" stroke-width="1.51"/><path d="M106,-37L80,-41L78,-11Z" fill="#8d8a9b" stroke="#8d8a9b" stroke-width="1.51"/><path d="M106,-37L78,-11L108,-10Z" fill="#9f9ead" stroke="#9f9ead" stroke-width="1.51"/><path d="M137,-7L106,-37L108,-10Z" fill="#9ea1b4" stroke="#9ea1b4" stroke-width="1.51"/><path d="M201,142L201,113L168,139Z" fill="#4e567c" stroke="#4e567c" stroke-width="1.51"/><path d="M80,-41L46,-44L78,-11Z" fill="#8d8593" stroke="#8d8593" stroke-width="1.51"/><path d="M137,-7L140,-42L106,-37Z" fill="#8389a3" stroke="#8389a3" stroke-width="1.51"/><path d="M166,23L171,-8L141,16Z" fill="#9fa1b6" stroke="#9fa1b6" stroke-width="1.51"/><path d="M199,77L198,49L173,76Z" fill="#635c74" stroke="#635c74" stroke-width="1.51"/><path d="M202,19L198,49L199,77Z" fill="#6d6881" stroke="#6d6881" stroke-width="1.51"/><path d="M198,166L201,142L168,139Z" fill="#39436e" stroke="#39436e" stroke-width="1.51"/><path d="M46,-44L16,-43L46,-10Z" fill="#9e9aab" stroke="#9e9aab" stroke-width="1.51"/><path d="M-10,-8L-42,-8L-11,16Z" fill="#bcbdce" stroke="#bcbdce" stroke-width="1.51"/><path d="M202,19L171,-8L166,23Z" fill="#8788a4" stroke="#8788a4" stroke-width="1.51"/><path d="M-38,-44L-42,-8L-10,-8Z" fill="#8285a3" stroke="#8285a3" stroke-width="1.51"/><path d="M-41,21L-42,-8L-40,170Z" fill="#7e7789" stroke="#7e7789" stroke-width="1.51"/><path d="M173,171L198,166L168,139Z" fill="#333e6a" stroke="#333e6a" stroke-width="1.51"/><path d="M134,195L172,197L143,170Z" fill="#38436d" stroke="#38436d" stroke-width="1.51"/><path d="M81,202L172,197L107,198Z" fill="#565d80" stroke="#565d80" stroke-width="1.51"/><path d="M-9,196L-38,202L19,199Z" fill="#686c90" stroke="#686c90" stroke-width="1.51"/><path d="M19,199L-38,202L81,202Z" fill="#7c7c98" stroke="#7c7c98" stroke-width="1.51"/><path d="M-40,170L-38,202L-9,196Z" fill="#424974" stroke="#424974" stroke-width="1.51"/><path d="M199,199L198,166L173,171Z" fill="#122656" stroke="#122656" stroke-width="1.51"/><path d="M166,-37L140,-42L137,-7Z" fill="#6c7193" stroke="#6c7193" stroke-width="1.51"/><path d="M106,-37L140,-42L80,-41Z" fill="#747792" stroke="#747792" stroke-width="1.51"/><path d="M80,-41L140,-42L46,-44Z" fill="#747289" stroke="#747289" stroke-width="1.51"/><path d="M171,-8L166,-37L137,-7Z" fill="#777b9b" stroke="#777b9b" stroke-width="1.51"/><path d="M198,49L202,19L166,23Z" fill="#777590" stroke="#777590" stroke-width="1.51"/><path d="M201,113L202,19L199,77Z" fill="#625c74" stroke="#625c74" stroke-width="1.51"/><path d="M201,142L202,19L201,113Z" fill="#5d5d7a" stroke="#5d5d7a" stroke-width="1.51"/><path d="M16,-43L-8,-45L17,-10Z" fill="#aeaec2" stroke="#aeaec2" stroke-width="1.51"/><path d="M46,-44L-8,-45L16,-43Z" fill="#9291a9" stroke="#9291a9" stroke-width="1.51"/><path d="M195,-12L166,-37L171,-8Z" fill="#5d6288" stroke="#5d6288" stroke-width="1.51"/><path d="M202,19L195,-12L171,-8Z" fill="#7a7c9d" stroke="#7a7c9d" stroke-width="1.51"/><path d="M81,202L199,199L172,197Z" fill="#37426d" stroke="#37426d" stroke-width="1.51"/><path d="M172,197L199,199L173,171Z" fill="#0c2354" stroke="#0c2354" stroke-width="1.51"/><path d="M198,166L199,199L201,142Z" fill="#20305e" stroke="#20305e" stroke-width="1.51"/><path d="M-8,-45L-38,-44L-10,-8Z" fill="#8183a2" stroke="#8183a2" stroke-width="1.51"/><path d="M202,19L194,-41L195,-12Z" fill="#64688d" stroke="#64688d" stroke-width="1.51"/><path d="M195,-12L194,-41L166,-37Z" fill="#404773" stroke="#404773" stroke-width="1.51"/><path d="M166,-37L194,-41L140,-42Z" fill="#414973" stroke="#414973" stroke-width="1.51"/><path d="M140,-42L194,-41L46,-44Z" fill="#697091" stroke="#697091" stroke-width="1.51"/></svg>