<svg xmlns="http://www.w3.org/2000/svg" width="90" height="90"><path d="M46,42L61,43L64,31Z" fill="#b4a9a3" stroke="#b4a9a3" stroke-width="1.51"/><path d="M64,31L45,26L46,42Z" fill="#bcb0a8" stroke="#bcb0a8" stroke-width="1.51"/><path d="M61,43L74,32L64,31Z" fill="#b5aeac" stroke="#b5aeac" stroke-width="1.51"/><path d="M59,10L44,13L45,26Z" fill="#cfc6c0" stroke="#cfc6c0" stroke-width="1.51"/><path d="M28,48L40,57L46,42Z" fill="#b7aaa0" stroke="#b7aaa0" stroke-width="1.51"/><path d="M59,10L45,26L64,31Z" fill="#c6bfbb" stroke="#c6bfbb" stroke-width="1.51"/><path d="M61,43L77,44L74,32Z" fill="#afa8a8" stroke="#afa8a8" stroke-width="1.51"/><path d="M72,10L59,10L64,31Z" fill="#c9c6c6" stroke="#c9c6c6" stroke-width="1.51"/><path d="M46,42L40,57L61,43Z" fill="#b0a197" stroke="#b0a197" stroke-width="1.51"/><path d="M61,43L75,60L77,44Z" fill="#a8a1a2" stroke="#a8a1a2" stroke-width="1.51"/><path d="M28,28L46,42L45,26Z" fill="#c5b9af" stroke="#c5b9af" stroke-width="1.51"/><path d="M32,17L28,28L45,26Z" fill="#d3cac2" stroke="#d3cac2" stroke-width="1.51"/><path d="M44,13L32,17L45,26Z" fill="#d3cac2" stroke="#d3cac2" stroke-width="1.51"/><path d="M28,28L28,48L46,42Z" fill="#c3b6ac" stroke="#c3b6ac" stroke-width="1.51"/><path d="M40,57L63,64L61,43Z" fill="#aba19d" stroke="#aba19d" stroke-width="1.51"/><path d="M74,32L72,10L64,31Z" fill="#bfbcbe" stroke="#bfbcbe" stroke-width="1.51"/><path d="M89,14L72,10L74,32Z" fill="#c2c4ca" stroke="#c2c4ca" stroke-width="1.51"/><path d="M40,57L44,73L63,64Z" fill="#aaa19f" stroke="#aaa19f" stroke-width="1.51"/><path d="M28,48L32,58L40,57Z" fill="#bbb0a9" stroke="#bbb0a9" stroke-width="1.51"/><path d="M63,64L75,60L61,43Z" fill="#a7a1a2" stroke="#a7a1a2" stroke-width="1.51"/><path d="M59,10L45,-5L44,13Z" fill="#c9c2c1" stroke="#c9c2c1" stroke-width="1.51"/><path d="M44,13L30,-5L32,17Z" fill="#ddd7d3" stroke="#ddd7d3" stroke-width="1.51"/><path d="M72,10L61,-1L59,10Z" fill="#c5c3c8" stroke="#c5c3c8" stroke-width="1.51"/><path d="M75,60L90,45L77,44Z" fill="#a3a0a5" stroke="#a3a0a5" stroke-width="1.51"/><path d="M77,44L90,45L74,32Z" fill="#aba7ab" stroke="#aba7ab" stroke-width="1.51"/><path d="M32,72L44,73L40,57Z" fill="#b1a9a7" stroke="#b1a9a7" stroke-width="1.51"/><path d="M63,64L75,77L75,60Z" fill="#a2a2a9" stroke="#a2a2a9" stroke-width="1.51"/><path d="M28,28L9,43L28,48Z" fill="#d0c6bf" stroke="#d0c6bf" stroke-width="1.51"/><path d="M13,61L32,72L32,58Z" fill="#c0bbb8" stroke="#c0bbb8" stroke-width="1.51"/><path d="M16,13L15,26L28,28Z" fill="#e6e0dc" stroke="#e6e0dc" stroke-width="1.51"/><path d="M16,13L28,28L32,17Z" fill="#e3ddd7" stroke="#e3ddd7" stroke-width="1.51"/><path d="M72,10L78,1L61,-1Z" fill="#b9b9c3" stroke="#b9b9c3" stroke-width="1.51"/><path d="M95,26L89,14L74,32Z" fill="#b0b1ba" stroke="#b0b1ba" stroke-width="1.51"/><path d="M61,-1L45,-5L59,10Z" fill="#b7b2b8" stroke="#b7b2b8" stroke-width="1.51"/><path d="M89,14L78,1L72,10Z" fill="#c6cbd5" stroke="#c6cbd5" stroke-width="1.51"/><path d="M61,-1L58,-20L45,-5Z" fill="#96919f" stroke="#96919f" stroke-width="1.51"/><path d="M90,45L95,26L74,32Z" fill="#a5a3ab" stroke="#a5a3ab" stroke-width="1.51"/><path d="M32,58L32,72L40,57Z" fill="#b7aeaa" stroke="#b7aeaa" stroke-width="1.51"/><path d="M13,61L32,58L28,48Z" fill="#c4bcb7" stroke="#c4bcb7" stroke-width="1.51"/><path d="M30,-5L16,13L32,17Z" fill="#e8e4e1" stroke="#e8e4e1" stroke-width="1.51"/><path d="M58,89L64,78L44,73Z" fill="#a3a1a8" stroke="#a3a1a8" stroke-width="1.51"/><path d="M44,73L64,78L63,64Z" fill="#a5a1a5" stroke="#a5a1a5" stroke-width="1.51"/><path d="M75,60L89,64L90,45Z" fill="#9a98a2" stroke="#9a98a2" stroke-width="1.51"/><path d="M75,77L89,64L75,60Z" fill="#9ea2ad" stroke="#9ea2ad" stroke-width="1.51"/><path d="M90,45L107,41L95,26Z" fill="#8d8997" stroke="#8d8997" stroke-width="1.51"/><path d="M-4,46L9,43L-6,30Z" fill="#bbb3b7" stroke="#bbb3b7" stroke-width="1.51"/><path d="M15,26L9,43L28,28Z" fill="#ddd6d0" stroke="#ddd6d0" stroke-width="1.51"/><path d="M45,-5L30,-5L44,13Z" fill="#bfb8ba" stroke="#bfb8ba" stroke-width="1.51"/><path d="M64,78L75,77L63,64Z" fill="#a1a2ab" stroke="#a1a2ab" stroke-width="1.51"/><path d="M9,43L13,61L28,48Z" fill="#cfc6c0" stroke="#cfc6c0" stroke-width="1.51"/><path d="M89,14L93,0L78,1Z" fill="#aeb2c3" stroke="#aeb2c3" stroke-width="1.51"/><path d="M72,-20L58,-20L61,-1Z" fill="#828197" stroke="#828197" stroke-width="1.51"/><path d="M111,16L93,0L89,14Z" fill="#a8aabe" stroke="#a8aabe" stroke-width="1.51"/><path d="M95,26L111,16L89,14Z" fill="#9d9eb1" stroke="#9d9eb1" stroke-width="1.51"/><path d="M106,57L107,41L90,45Z" fill="#7d7888" stroke="#7d7888" stroke-width="1.51"/><path d="M64,78L75,88L75,77Z" fill="#9ba0ae" stroke="#9ba0ae" stroke-width="1.51"/><path d="M47,90L58,89L44,73Z" fill="#9d9aa0" stroke="#9d9aa0" stroke-width="1.51"/><path d="M47,90L44,73L31,93Z" fill="#a09ca3" stroke="#a09ca3" stroke-width="1.51"/><path d="M30,-5L16,-4L16,13Z" fill="#d5d2d8" stroke="#d5d2d8" stroke-width="1.51"/><path d="M-6,30L9,43L15,26Z" fill="#d8d2d1" stroke="#d8d2d1" stroke-width="1.51"/><path d="M72,-20L61,-1L78,1Z" fill="#9798ab" stroke="#9798ab" stroke-width="1.51"/><path d="M45,-5L44,-20L30,-5Z" fill="#9a939f" stroke="#9a939f" stroke-width="1.51"/><path d="M30,-5L17,-17L16,-4Z" fill="#b2afbe" stroke="#b2afbe" stroke-width="1.51"/><path d="M31,93L44,73L32,72Z" fill="#b0adb1" stroke="#b0adb1" stroke-width="1.51"/><path d="M58,-20L44,-20L45,-5Z" fill="#837c8d" stroke="#837c8d" stroke-width="1.51"/><path d="M89,64L106,57L90,45Z" fill="#868493" stroke="#868493" stroke-width="1.51"/><path d="M75,77L90,78L89,64Z" fill="#9499aa" stroke="#9499aa" stroke-width="1.51"/><path d="M75,88L90,78L75,77Z" fill="#97a0b2" stroke="#97a0b2" stroke-width="1.51"/><path d="M104,75L106,57L89,64Z" fill="#797b91" stroke="#797b91" stroke-width="1.51"/><path d="M107,41L111,32L95,26Z" fill="#848093" stroke="#848093" stroke-width="1.51"/><path d="M106,57L111,32L107,41Z" fill="#736c80" stroke="#736c80" stroke-width="1.51"/><path d="M58,89L75,88L64,78Z" fill="#9598a6" stroke="#9598a6" stroke-width="1.51"/><path d="M60,104L75,88L58,89Z" fill="#858799" stroke="#858799" stroke-width="1.51"/><path d="M1,79L15,77L13,61Z" fill="#cecfd4" stroke="#cecfd4" stroke-width="1.51"/><path d="M13,61L15,77L32,72Z" fill="#c4c2c4" stroke="#c4c2c4" stroke-width="1.51"/><path d="M95,-18L72,-20L78,1Z" fill="#7d839f" stroke="#7d839f" stroke-width="1.51"/><path d="M9,43L-4,58L13,61Z" fill="#c8c2c3" stroke="#c8c2c3" stroke-width="1.51"/><path d="M-6,30L15,26L-4,12Z" fill="#d4d1d6" stroke="#d4d1d6" stroke-width="1.51"/><path d="M93,0L95,-18L78,1Z" fill="#858aa5" stroke="#858aa5" stroke-width="1.51"/><path d="M111,32L111,16L95,26Z" fill="#89879e" stroke="#89879e" stroke-width="1.51"/><path d="M-4,12L15,26L16,13Z" fill="#f4f2f1" stroke="#f4f2f1" stroke-width="1.51"/><path d="M72,-20L29,-21L58,-20Z" fill="#706c82" stroke="#706c82" stroke-width="1.51"/><path d="M58,-20L29,-21L44,-20Z" fill="#756d81" stroke="#756d81" stroke-width="1.51"/><path d="M44,-20L29,-21L30,-5Z" fill="#8e899a" stroke="#8e899a" stroke-width="1.51"/><path d="M-2,-1L16,13L16,-4Z" fill="#e5e5ec" stroke="#e5e5ec" stroke-width="1.51"/><path d="M-2,-1L-4,12L16,13Z" fill="#e1e1e9" stroke="#e1e1e9" stroke-width="1.51"/><path d="M-4,46L-4,58L9,43Z" fill="#b6afb3" stroke="#b6afb3" stroke-width="1.51"/><path d="M-22,44L-4,58L-4,46Z" fill="#938d99" stroke="#938d99" stroke-width="1.51"/><path d="M15,77L31,93L32,72Z" fill="#b9b9bf" stroke="#b9b9bf" stroke-width="1.51"/><path d="M47,90L60,104L58,89Z" fill="#878594" stroke="#878594" stroke-width="1.51"/><path d="M29,-21L17,-17L30,-5Z" fill="#9a97aa" stroke="#9a97aa" stroke-width="1.51"/><path d="M106,57L109,88L111,32Z" fill="#6a6982" stroke="#6a6982" stroke-width="1.51"/><path d="M90,78L104,75L89,64Z" fill="#80859b" stroke="#80859b" stroke-width="1.51"/><path d="M109,88L104,75L90,78Z" fill="#717896" stroke="#717896" stroke-width="1.51"/><path d="M0,-14L-2,-1L16,-4Z" fill="#b4b5c8" stroke="#b4b5c8" stroke-width="1.51"/><path d="M109,-6L95,-18L93,0Z" fill="#696f91" stroke="#696f91" stroke-width="1.51"/><path d="M111,16L109,-6L93,0Z" fill="#8588a5" stroke="#8588a5" stroke-width="1.51"/><path d="M15,77L16,93L31,93Z" fill="#b1b1bd" stroke="#b1b1bd" stroke-width="1.51"/><path d="M-4,58L1,79L13,61Z" fill="#bab9c2" stroke="#bab9c2" stroke-width="1.51"/><path d="M75,88L92,94L90,78Z" fill="#828aa2" stroke="#828aa2" stroke-width="1.51"/><path d="M45,109L60,104L47,90Z" fill="#7c7889" stroke="#7c7889" stroke-width="1.51"/><path d="M31,93L45,109L47,90Z" fill="#898492" stroke="#898492" stroke-width="1.51"/><path d="M1,79L16,93L15,77Z" fill="#c4c9d3" stroke="#c4c9d3" stroke-width="1.51"/><path d="M74,105L92,94L75,88Z" fill="#7b829d" stroke="#7b829d" stroke-width="1.51"/><path d="M17,-17L0,-14L16,-4Z" fill="#b2b3c5" stroke="#b2b3c5" stroke-width="1.51"/><path d="M-18,-20L0,-14L17,-17Z" fill="#7f81a1" stroke="#7f81a1" stroke-width="1.51"/><path d="M60,104L74,105L75,88Z" fill="#797c94" stroke="#797c94" stroke-width="1.51"/><path d="M-21,11L-19,29L-4,12Z" fill="#a1a0b5" stroke="#a1a0b5" stroke-width="1.51"/><path d="M-4,12L-19,29L-6,30Z" fill="#aca9b8" stroke="#aca9b8" stroke-width="1.51"/><path d="M-6,30L-22,44L-4,46Z" fill="#98919d" stroke="#98919d" stroke-width="1.51"/><path d="M-4,58L-19,74L1,79Z" fill="#9596a9" stroke="#9596a9" stroke-width="1.51"/><path d="M-21,11L-4,12L-15,-4Z" fill="#a2a3bb" stroke="#a2a3bb" stroke-width="1.51"/><path d="M109,-6L104,-20L95,-18Z" fill="#4d547c" stroke="#4d547c" stroke-width="1.51"/><path d="M95,-18L104,-20L72,-20Z" fill="#565d82" stroke="#565d82" stroke-width="1.51"/><path d="M72,-20L104,-20L29,-21Z" fill="#6b6d89" stroke="#6b6d89" stroke-width="1.51"/><path d="M60,104L45,109L74,105Z" fill="#6f6e86" stroke="#6f6e86" stroke-width="1.51"/><path d="M33,110L45,109L31,93Z" fill="#817c8e" stroke="#817c8e" stroke-width="1.51"/><path d="M92,94L109,88L90,78Z" fill="#6c7492" stroke="#6c7492" stroke-width="1.51"/><path d="M104,75L109,88L106,57Z" fill="#696e8b" stroke="#696e8b" stroke-width="1.51"/><path d="M108,107L109,88L92,94Z" fill="#4e567c" stroke="#4e567c" stroke-width="1.51"/><path d="M-19,29L-22,44L-6,30Z" fill="#8d8899" stroke="#8d8899" stroke-width="1.51"/><path d="M16,93L33,110L31,93Z" fill="#9593a4" stroke="#9593a4" stroke-width="1.51"/><path d="M13,111L33,110L16,93Z" fill="#8f8fa5" stroke="#8f8fa5" stroke-width="1.51"/><path d="M-19,29L-21,11L-22,44Z" fill="#827f96" stroke="#827f96" stroke-width="1.51"/><path d="M-15,-4L-4,12L-2,-1Z" fill="#aaaac0" stroke="#aaaac0" stroke-width="1.51"/><path d="M-22,44L-20,62L-4,58Z" fill="#807b8f" stroke="#807b8f" stroke-width="1.51"/><path d="M1,79L-3,90L16,93Z" fill="#abafc1" stroke="#abafc1" stroke-width="1.51"/><path d="M0,-14L-15,-4L-2,-1Z" fill="#9192ae" stroke="#9192ae" stroke-width="1.51"/><path d="M-19,74L-3,90L1,79Z" fill="#9095ad" stroke="#9095ad" stroke-width="1.51"/><path d="M-20,62L-19,74L-4,58Z" fill="#807f96" stroke="#807f96" stroke-width="1.51"/><path d="M-19,93L-19,74L-20,62Z" fill="#6b708f" stroke="#6b708f" stroke-width="1.51"/><path d="M33,110L93,109L45,109Z" fill="#6a6880" stroke="#6a6880" stroke-width="1.51"/><path d="M45,109L93,109L74,105Z" fill="#686c89" stroke="#686c89" stroke-width="1.51"/><path d="M74,105L93,109L92,94Z" fill="#616a8b" stroke="#616a8b" stroke-width="1.51"/><path d="M33,110L13,111L93,109Z" fill="#6d667b" stroke="#6d667b" stroke-width="1.51"/><path d="M-4,109L13,111L16,93Z" fill="#9699b2" stroke="#9699b2" stroke-width="1.51"/><path d="M-4,109L16,93L-3,90Z" fill="#9295af" stroke="#9295af" stroke-width="1.51"/><path d="M93,109L108,107L92,94Z" fill="#4b537a" stroke="#4b537a" stroke-width="1.51"/><path d="M-15,-4L-18,-20L-21,11Z" fill="#6f7294" stroke="#6f7294" stroke-width="1.51"/><path d="M0,-14L-18,-20L-15,-4Z" fill="#6a6d92" stroke="#6a6d92" stroke-width="1.51"/><path d="M29,-21L-18,-20L17,-17Z" fill="#9899b3" stroke="#9899b3" stroke-width="1.51"/><path d="M-19,74L-19,93L-3,90Z" fill="#717796" stroke="#717796" stroke-width="1.51"/><path d="M-22,44L-19,93L-20,62Z" fill="#6b6d88" stroke="#6b6d88" stroke-width="1.51"/><path d="M-19,93L-4,109L-3,90Z" fill="#6b7092" stroke="#6b7092" stroke-width="1.51"/><path d="M-4,109L-18,110L13,111Z" fill="#65698d" stroke="#65698d" stroke-width="1.51"/><path d="M-19,93L-18,110L-4,109Z" fill="#4e547c" stroke="#4e547c" stroke-width="1.51"/><path d="M-22,44L-18,110L-19,93Z" fill="#646a8c" stroke="#646a8c" stroke-width="1.51"/></svg>