<svg xmlns="http://www.w3.org/2000/svg" width="90" height="90"><path d="M48,46L42,36L41,47Z" fill="#b4a598" stroke="#b4a598" stroke-width="1.51"/><path d="M48,46L63,30L42,36Z" fill="#b6a9a0" stroke="#b6a9a0" stroke-width="1.51"/><path d="M63,30L52,17L42,36Z" fill="#bfb4ad" stroke="#bfb4ad" stroke-width="1.51"/><path d="M48,46L72,56L63,30Z" fill="#aea29b" stroke="#aea29b" stroke-width="1.51"/><path d="M41,47L46,69L48,46Z" fill="#afa198" stroke="#afa198" stroke-width="1.51"/><path d="M41,47L35,70L46,69Z" fill="#b1a5a0" stroke="#b1a5a0" stroke-width="1.51"/><path d="M14,53L35,70L41,47Z" fill="#bcb1ab" stroke="#bcb1ab" stroke-width="1.51"/><path d="M46,69L72,56L48,46Z" fill="#aca19d" stroke="#aca19d" stroke-width="1.51"/><path d="M10,40L14,53L41,47Z" fill="#c6bbb2" stroke="#c6bbb2" stroke-width="1.51"/><path d="M10,40L41,47L42,36Z" fill="#c1b5aa" stroke="#c1b5aa" stroke-width="1.51"/><path d="M18,12L10,40L42,36Z" fill="#d4cac3" stroke="#d4cac3" stroke-width="1.51"/><path d="M52,17L18,12L42,36Z" fill="#cec3bb" stroke="#cec3bb" stroke-width="1.51"/><path d="M46,-14L43,4L77,-6Z" fill="#bbb5b9" stroke="#bbb5b9" stroke-width="1.51"/><path d="M43,4L18,12L52,17Z" fill="#d8cfc8" stroke="#d8cfc8" stroke-width="1.51"/><path d="M63,30L78,22L52,17Z" fill="#c0b9b7" stroke="#c0b9b7" stroke-width="1.51"/><path d="M84,38L78,22L63,30Z" fill="#b6b2b2" stroke="#b6b2b2" stroke-width="1.51"/><path d="M72,56L84,38L63,30Z" fill="#ada5a3" stroke="#ada5a3" stroke-width="1.51"/><path d="M43,4L26,0L18,12Z" fill="#e5dfdb" stroke="#e5dfdb" stroke-width="1.51"/><path d="M14,53L7,70L35,70Z" fill="#c4bebd" stroke="#c4bebd" stroke-width="1.51"/><path d="M-2,51L7,70L14,53Z" fill="#d1ccca" stroke="#d1ccca" stroke-width="1.51"/><path d="M-3,37L-2,51L10,40Z" fill="#d4ccc7" stroke="#d4ccc7" stroke-width="1.51"/><path d="M10,40L-2,51L14,53Z" fill="#d3cbc4" stroke="#d3cbc4" stroke-width="1.51"/><path d="M1,16L-3,37L10,40Z" fill="#e2dcd9" stroke="#e2dcd9" stroke-width="1.51"/><path d="M1,16L10,40L18,12Z" fill="#e7e2dd" stroke="#e7e2dd" stroke-width="1.51"/><path d="M14,-1L1,16L18,12Z" fill="#f3f0ee" stroke="#f3f0ee" stroke-width="1.51"/><path d="M46,69L79,79L72,56Z" fill="#a6a2a4" stroke="#a6a2a4" stroke-width="1.51"/><path d="M98,62L100,38L84,38Z" fill="#99949b" stroke="#99949b" stroke-width="1.51"/><path d="M60,99L79,79L46,69Z" fill="#a2a1a9" stroke="#a2a1a9" stroke-width="1.51"/><path d="M60,99L46,69L35,103Z" fill="#9f9aa0" stroke="#9f9aa0" stroke-width="1.51"/><path d="M26,0L14,-1L18,12Z" fill="#f0ecea" stroke="#f0ecea" stroke-width="1.51"/><path d="M77,-6L43,4L52,17Z" fill="#d3cecb" stroke="#d3cecb" stroke-width="1.51"/><path d="M43,4L46,-14L26,0Z" fill="#c9c2c2" stroke="#c9c2c2" stroke-width="1.51"/><path d="M26,0L21,-37L14,-1Z" fill="#bebbc6" stroke="#bebbc6" stroke-width="1.51"/><path d="M78,22L77,-6L52,17Z" fill="#cac7c8" stroke="#cac7c8" stroke-width="1.51"/><path d="M84,38L100,38L78,22Z" fill="#afadb2" stroke="#afadb2" stroke-width="1.51"/><path d="M98,62L84,38L72,56Z" fill="#a4a1a6" stroke="#a4a1a6" stroke-width="1.51"/><path d="M79,79L98,62L72,56Z" fill="#a1a1aa" stroke="#a1a1aa" stroke-width="1.51"/><path d="M95,10L77,-6L78,22Z" fill="#c7cad1" stroke="#c7cad1" stroke-width="1.51"/><path d="M79,79L100,81L98,62Z" fill="#9397a8" stroke="#9397a8" stroke-width="1.51"/><path d="M35,103L46,69L35,70Z" fill="#ada8aa" stroke="#ada8aa" stroke-width="1.51"/><path d="M11,96L35,103L35,70Z" fill="#b1b0b6" stroke="#b1b0b6" stroke-width="1.51"/><path d="M-2,51L-2,80L7,70Z" fill="#c9c8cb" stroke="#c9c8cb" stroke-width="1.51"/><path d="M-5,94L-2,80L-19,82Z" fill="#a7acbd" stroke="#a7acbd" stroke-width="1.51"/><path d="M100,38L95,10L78,22Z" fill="#b2b1b9" stroke="#b2b1b9" stroke-width="1.51"/><path d="M11,96L35,70L7,70Z" fill="#c1c0c3" stroke="#c1c0c3" stroke-width="1.51"/><path d="M-2,80L11,96L7,70Z" fill="#cbced4" stroke="#cbced4" stroke-width="1.51"/><path d="M60,99L75,97L79,79Z" fill="#9599a7" stroke="#9599a7" stroke-width="1.51"/><path d="M71,124L75,97L60,99Z" fill="#7d7f94" stroke="#7d7f94" stroke-width="1.51"/><path d="M77,-6L56,-21L46,-14Z" fill="#a19da9" stroke="#a19da9" stroke-width="1.51"/><path d="M-7,-36L-5,-3L14,-1Z" fill="#c3c3d3" stroke="#c3c3d3" stroke-width="1.51"/><path d="M75,97L91,87L79,79Z" fill="#99a0b0" stroke="#99a0b0" stroke-width="1.51"/><path d="M100,38L109,33L95,10Z" fill="#9d9ba8" stroke="#9d9ba8" stroke-width="1.51"/><path d="M119,53L109,33L100,38Z" fill="#837e8d" stroke="#837e8d" stroke-width="1.51"/><path d="M119,53L100,38L98,62Z" fill="#84818f" stroke="#84818f" stroke-width="1.51"/><path d="M-19,82L-2,80L-2,51Z" fill="#afafba" stroke="#afafba" stroke-width="1.51"/><path d="M-28,25L-28,51L-3,37Z" fill="#9b94a0" stroke="#9b94a0" stroke-width="1.51"/><path d="M14,-1L-5,-3L1,16Z" fill="#fefdfe" stroke="#fefdfe" stroke-width="1.51"/><path d="M21,-37L26,0L46,-14Z" fill="#a8a3ae" stroke="#a8a3ae" stroke-width="1.51"/><path d="M92,-36L67,-21L77,-6Z" fill="#878aa1" stroke="#878aa1" stroke-width="1.51"/><path d="M77,-6L67,-21L56,-21Z" fill="#9897a7" stroke="#9897a7" stroke-width="1.51"/><path d="M91,87L100,81L79,79Z" fill="#959bad" stroke="#959bad" stroke-width="1.51"/><path d="M95,10L101,1L77,-6Z" fill="#bec1ce" stroke="#bec1ce" stroke-width="1.51"/><path d="M112,11L101,1L95,10Z" fill="#acaebf" stroke="#acaebf" stroke-width="1.51"/><path d="M-28,51L-2,51L-3,37Z" fill="#ada4aa" stroke="#ada4aa" stroke-width="1.51"/><path d="M-2,80L-5,94L11,96Z" fill="#bec2cf" stroke="#bec2cf" stroke-width="1.51"/><path d="M42,121L51,116L35,103Z" fill="#7c7687" stroke="#7c7687" stroke-width="1.51"/><path d="M-26,18L-3,37L1,16Z" fill="#c5c1c8" stroke="#c5c1c8" stroke-width="1.51"/><path d="M-5,-3L-26,18L1,16Z" fill="#cfced8" stroke="#cfced8" stroke-width="1.51"/><path d="M-26,18L-28,25L-3,37Z" fill="#a6a2b0" stroke="#a6a2b0" stroke-width="1.51"/><path d="M-28,51L-19,82L-2,51Z" fill="#9996a4" stroke="#9996a4" stroke-width="1.51"/><path d="M75,97L105,120L91,87Z" fill="#7a829c" stroke="#7a829c" stroke-width="1.51"/><path d="M125,103L122,69L100,81Z" fill="#69718f" stroke="#69718f" stroke-width="1.51"/><path d="M35,103L51,116L60,99Z" fill="#84808e" stroke="#84808e" stroke-width="1.51"/><path d="M16,113L35,103L11,96Z" fill="#9e9dad" stroke="#9e9dad" stroke-width="1.51"/><path d="M109,33L112,11L95,10Z" fill="#9e9eae" stroke="#9e9eae" stroke-width="1.51"/><path d="M122,69L119,53L98,62Z" fill="#75748a" stroke="#75748a" stroke-width="1.51"/><path d="M109,33L119,53L112,11Z" fill="#858193" stroke="#858193" stroke-width="1.51"/><path d="M-11,110L16,113L11,96Z" fill="#a7aabd" stroke="#a7aabd" stroke-width="1.51"/><path d="M-11,110L11,96L-5,94Z" fill="#a4a8bc" stroke="#a4a8bc" stroke-width="1.51"/><path d="M67,-21L41,-35L56,-21Z" fill="#817c8f" stroke="#817c8f" stroke-width="1.51"/><path d="M56,-21L41,-35L46,-14Z" fill="#8a8291" stroke="#8a8291" stroke-width="1.51"/><path d="M16,113L42,121L35,103Z" fill="#878496" stroke="#878496" stroke-width="1.51"/><path d="M41,-35L21,-37L46,-14Z" fill="#847e90" stroke="#847e90" stroke-width="1.51"/><path d="M-5,-3L-28,-10L-26,18Z" fill="#b3b4c7" stroke="#b3b4c7" stroke-width="1.51"/><path d="M100,81L122,69L98,62Z" fill="#7d7f94" stroke="#7d7f94" stroke-width="1.51"/><path d="M126,-11L101,1L112,11Z" fill="#9497b0" stroke="#9497b0" stroke-width="1.51"/><path d="M125,103L100,81L91,87Z" fill="#737b97" stroke="#737b97" stroke-width="1.51"/><path d="M51,116L71,124L60,99Z" fill="#76748a" stroke="#76748a" stroke-width="1.51"/><path d="M42,121L71,124L51,116Z" fill="#6c687f" stroke="#6c687f" stroke-width="1.51"/><path d="M-36,87L-11,110L-19,82Z" fill="#767b9a" stroke="#767b9a" stroke-width="1.51"/><path d="M-19,82L-11,110L-5,94Z" fill="#8f94ac" stroke="#8f94ac" stroke-width="1.51"/><path d="M16,113L-23,123L42,121Z" fill="#8d8da6" stroke="#8d8da6" stroke-width="1.51"/><path d="M-26,18L-28,-10L-28,25Z" fill="#9c9cb2" stroke="#9c9cb2" stroke-width="1.51"/><path d="M-29,-19L-28,-10L-5,-3Z" fill="#8c8eab" stroke="#8c8eab" stroke-width="1.51"/><path d="M67,-21L92,-36L41,-35Z" fill="#6f6f89" stroke="#6f6f89" stroke-width="1.51"/><path d="M41,-35L92,-36L21,-37Z" fill="#666179" stroke="#666179" stroke-width="1.51"/><path d="M101,1L92,-36L77,-6Z" fill="#9397ae" stroke="#9397ae" stroke-width="1.51"/><path d="M110,-30L92,-36L101,1Z" fill="#6a7091" stroke="#6a7091" stroke-width="1.51"/><path d="M-28,51L-36,87L-19,82Z" fill="#757891" stroke="#757891" stroke-width="1.51"/><path d="M-28,25L-36,87L-28,51Z" fill="#736f85" stroke="#736f85" stroke-width="1.51"/><path d="M-29,-19L-36,87L-28,25Z" fill="#817c91" stroke="#817c91" stroke-width="1.51"/><path d="M21,-37L-7,-36L14,-1Z" fill="#a5a5ba" stroke="#a5a5ba" stroke-width="1.51"/><path d="M-28,-10L-29,-19L-28,25Z" fill="#9293af" stroke="#9293af" stroke-width="1.51"/><path d="M-7,-36L-29,-19L-5,-3Z" fill="#8889a7" stroke="#8889a7" stroke-width="1.51"/><path d="M126,-11L112,11L119,53Z" fill="#87879f" stroke="#87879f" stroke-width="1.51"/><path d="M126,-11L110,-30L101,1Z" fill="#6f7394" stroke="#6f7394" stroke-width="1.51"/><path d="M122,69L126,-11L119,53Z" fill="#726e83" stroke="#726e83" stroke-width="1.51"/><path d="M71,124L105,120L75,97Z" fill="#6d7491" stroke="#6d7491" stroke-width="1.51"/><path d="M122,69L125,103L126,-11Z" fill="#66627b" stroke="#66627b" stroke-width="1.51"/><path d="M105,120L125,103L91,87Z" fill="#5b6386" stroke="#5b6386" stroke-width="1.51"/><path d="M-11,110L-23,123L16,113Z" fill="#7e81a0" stroke="#7e81a0" stroke-width="1.51"/><path d="M42,121L-23,123L71,124Z" fill="#77748b" stroke="#77748b" stroke-width="1.51"/><path d="M-36,87L-23,123L-11,110Z" fill="#5b6186" stroke="#5b6186" stroke-width="1.51"/><path d="M105,120L118,125L125,103Z" fill="#37426d" stroke="#37426d" stroke-width="1.51"/><path d="M71,124L118,125L105,120Z" fill="#49527a" stroke="#49527a" stroke-width="1.51"/><path d="M-23,123L118,125L71,124Z" fill="#66627b" stroke="#66627b" stroke-width="1.51"/></svg>